<?xml version="1.0" encoding="iso-8859-1"?>
<!-- Generator: Adobe Illustrator 24.3.0, SVG Export Plug-In . SVG Version: 6.00 Build 0)  -->
<svg version="1.1" id="Layer_1" xmlns="http://www.w3.org/2000/svg" xmlns:xlink="http://www.w3.org/1999/xlink" x="0px" y="0px"
	 viewBox="0 0 500 500" style="enable-background:new 0 0 500 500;" xml:space="preserve">
<g>
	<g>
		<g>
			<path style="fill:#ffffff;" d="M411.943,34.72v266.883l0,0c-0.863,28.501-7.774,52.687-19.863,74.282
				c-12.524,21.588-30.664,40.158-53.982,56.135l0,0c-12.954,8.206-27.641,15.98-43.184,22.023
				c-14.685,6.046-29.371,10.369-44.483,12.957h-0.432v-3.456c14.685-2.588,29.36-6.909,43.622-12.52
				c15.112-6.046,29.792-13.822,42.751-22.023l0,0c22.884-15.98,40.156-33.687,52.25-54.851
				c12.524-20.723,19.002-44.913,19.863-72.547V36.451H249.999V33h160.212h1.732V34.72z M249.999,467L249.999,467h-0.432
				c-15.113-2.588-30.232-6.911-44.482-12.957c-15.545-6.043-30.23-13.817-43.614-22.023l0,0
				c-22.889-15.977-41.024-34.547-53.552-56.135c-12.523-21.595-19.001-45.781-19.862-74.282l0,0V34.72V33h1.728h160.214v3.451
				H91.512v265.152c0.861,27.634,7.339,51.824,19.435,72.547c12.089,21.163,29.796,38.87,52.685,54.851l0,0
				c12.95,8.201,27.635,15.977,42.747,22.023c14.257,5.611,28.935,9.932,43.62,12.52l0,0V467z"/>
			<path style="fill:none;stroke:#ffffff;stroke-width:0.4399;" d="M411.943,34.72v266.883l0,0
				c-0.863,28.501-7.774,52.687-19.863,74.282c-12.524,21.588-30.664,40.158-53.982,56.135l0,0
				c-12.954,8.206-27.641,15.98-43.184,22.023c-14.685,6.046-29.371,10.369-44.483,12.957h-0.432h-0.432
				c-15.113-2.588-30.232-6.911-44.482-12.957c-15.545-6.043-30.23-13.817-43.614-22.023l0,0
				c-22.889-15.977-41.024-34.547-53.552-56.135c-12.523-21.595-19.001-45.781-19.862-74.282l0,0V34.72V33h1.728h320.426h1.732
				V34.72L411.943,34.72z M408.485,301.603V36.451H91.512v265.152c0.861,27.634,7.339,51.824,19.435,72.547
				c12.089,21.163,29.796,38.87,52.685,54.851l0,0c12.95,8.201,27.635,15.977,42.747,22.023c14.257,5.611,28.935,9.932,43.62,12.52
				c14.685-2.588,29.36-6.909,43.622-12.52c15.112-6.046,29.792-13.822,42.751-22.023l0,0c22.884-15.98,40.156-33.687,52.25-54.851
				C401.146,353.427,407.624,329.237,408.485,301.603z"/>
		</g>
		<g>
			<path style="fill:#ffffff;" d="M366.165,337.878L366.165,337.878c-1.295,3.888-2.59,7.337-4.322,10.794
				c-1.723,3.89-3.451,7.346-5.611,10.801l0,0c-5.611,8.634-12.524,16.84-19.861,23.746c-8.639,8.211-18.142,15.117-27.639,20.735
				l0,0c-9.069,5.178-18.138,9.499-27.636,13.384c-9.075,3.888-18.574,6.911-28.074,9.071l0,0l-2.592,0.428h-0.432v-2.588l0,0
				l2.595-0.86l0,0c9.066-2.163,18.568-5.192,27.202-8.641c9.497-3.883,18.566-8.206,27.204-13.384l0,0
				c9.934-5.616,19.003-12.098,27.209-19.868c7.346-7.346,14.249-15.112,19.435-23.751l0,0c2.153-3.455,3.883-6.478,5.611-9.936
				c1.725-3.453,3.02-7.336,4.32-10.794l0,0c1.295-3.888,2.158-8.206,3.027-12.089c1.293-4.323,1.719-8.211,2.588-12.522l0,0
				c0-0.867,0-1.3,0-1.735c0.432-3.455,0.432-6.906,0.432-9.932V74.883H249.999v-3.02h122.646v1.726v227.147l0,0
				c0,3.455-0.435,6.913-0.435,9.932c-0.432,0.869-0.432,1.735-0.432,2.164l0,0c-0.433,4.316-1.293,8.206-2.156,12.522
				C368.757,329.672,367.458,333.56,366.165,337.878z M249.999,426.837h-0.432c-6.474-1.293-12.952-3.023-19.431-5.183
				c-6.479-2.156-12.956-4.746-19.002-7.339l0,0c-6.05-3.023-11.662-5.618-17.706-9.068c-5.617-3.456-11.229-6.911-16.412-10.794
				l0,0c-5.617-4.323-10.794-8.639-15.979-13.822c-4.75-4.746-9.501-9.936-13.384-15.547l0,0
				c-4.322-6.478-8.207-12.957-11.234-19.868c-2.589-6.478-4.744-13.812-6.472-21.154l0,0c-0.866-3.892-1.295-7.774-1.727-11.657
				c-0.434-3.89-0.868-7.778-0.868-11.668l0,0V73.589v-1.726h122.646v3.02H129.948v225.853c0.428,3.89,0.428,7.778,0.861,11.236
				c0.433,3.883,1.294,7.766,1.727,11.654v-0.433c1.729,7.345,3.884,14.257,6.912,21.163c2.59,6.476,6.045,12.957,10.361,19l0,0
				c4.323,5.618,8.64,10.794,13.391,15.552c4.749,4.743,9.934,9.066,15.544,13.382l0,0c5.185,3.883,10.796,7.341,16.413,10.364
				c5.61,3.455,11.222,6.043,17.273,8.637l0,0c6.044,3.023,12.089,5.185,18.567,7.339c6.045,2.16,12.523,3.89,19.001,5.618V426.837z
				"/>
			<path style="fill:none;stroke:#ffffff;stroke-width:0.4399;" d="M366.165,337.878L366.165,337.878
				c-1.295,3.888-2.59,7.337-4.322,10.794c-1.723,3.89-3.451,7.346-5.611,10.801l0,0c-5.611,8.634-12.524,16.84-19.861,23.746
				c-8.639,8.211-18.142,15.117-27.639,20.735l0,0c-9.069,5.178-18.138,9.499-27.636,13.384c-9.075,3.888-18.574,6.911-28.074,9.071
				l0,0l-2.592,0.428h-0.863c-6.474-1.293-12.952-3.023-19.431-5.183c-6.479-2.156-12.956-4.746-19.002-7.339l0,0
				c-6.05-3.023-11.662-5.618-17.706-9.068c-5.617-3.456-11.229-6.911-16.412-10.794l0,0c-5.617-4.323-10.794-8.639-15.979-13.822
				c-4.75-4.746-9.501-9.936-13.384-15.547l0,0c-4.322-6.478-8.207-12.957-11.234-19.868c-2.589-6.478-4.744-13.812-6.472-21.154
				l0,0c-0.866-3.892-1.295-7.774-1.727-11.657c-0.434-3.89-0.868-7.778-0.868-11.668l0,0V73.589v-1.726h245.292v1.726v227.147l0,0
				c0,3.455-0.435,6.913-0.435,9.932c-0.432,0.869-0.432,1.735-0.432,2.164l0,0c-0.433,4.316-1.293,8.206-2.156,12.522
				C368.757,329.672,367.458,333.56,366.165,337.878L366.165,337.878z M363.576,337.015L363.576,337.015
				c1.295-3.888,2.158-8.206,3.027-12.089c1.293-4.323,1.719-8.211,2.588-12.522l0,0c0-0.867,0-1.3,0-1.735
				c0.432-3.455,0.432-6.906,0.432-9.932V74.883H129.948v225.853c0.428,3.89,0.428,7.778,0.861,11.236
				c0.433,3.883,1.294,7.766,1.727,11.654v-0.433c1.729,7.345,3.884,14.257,6.912,21.163c2.59,6.476,6.045,12.957,10.361,19l0,0
				c4.323,5.618,8.64,10.794,13.391,15.552c4.749,4.743,9.934,9.066,15.544,13.382l0,0c5.185,3.883,10.796,7.341,16.413,10.364
				c5.61,3.455,11.222,6.043,17.273,8.637l0,0c6.044,3.023,12.089,5.185,18.567,7.339c6.045,2.16,12.523,3.89,19.001,5.618
				l2.595-0.86l0,0c9.066-2.163,18.568-5.192,27.202-8.641c9.497-3.883,18.566-8.206,27.204-13.384l0,0
				c9.934-5.616,19.003-12.098,27.209-19.868c7.346-7.346,14.249-15.112,19.435-23.751l0,0c2.153-3.455,3.883-6.478,5.611-9.936
				C360.981,344.356,362.276,340.473,363.576,337.015z"/>
		</g>
		<polygon style="fill-rule:evenodd;clip-rule:evenodd;fill:#ffffff;stroke:#ffffff;stroke-width:0.4399;" points="246.543,294.257 
			248.271,294.257 250.431,294.692 252.594,293.402 253.456,292.969 252.163,292.538 250.431,292.102 249.138,291.669 
			248.271,292.102 248.704,292.969 248.271,293.402 247.409,293.402 246.543,293.83 246.543,294.692 246.543,294.257 		"/>
		<polygon style="fill-rule:evenodd;clip-rule:evenodd;fill:#ffffff;stroke:#ffffff;stroke-width:0.4399;" points="242.662,289.946 
			244.381,288.214 247.838,288.214 250.862,289.079 253.456,290.374 255.617,291.669 257.34,292.969 255.617,294.692 
			253.456,295.125 252.163,294.692 252.594,293.83 252.594,292.538 249.567,290.809 247.409,290.374 246.976,289.946 
			243.955,290.374 242.662,289.946 242.662,289.946 		"/>
		<path style="fill-rule:evenodd;clip-rule:evenodd;fill:#ffffff;stroke:#ffffff;stroke-width:0.4399;" d="M292.32,364.651v-5.178
			c0.432,0,0.863-0.435,0.863-0.867c0.861,0,0-0.433,0.861-0.433c0,0.433-0.861,0,0-0.86c0,1.293-0.861,0.86,0.869,0
			c0-0.863-0.437-4.751,0-5.618h0.426v-0.863l0.435-0.425c-0.435,0.425,0,0,0.865,0l0.435-0.435c-0.435,0.435,0,0,0-0.869
			l0.428-0.432c-0.428,0.432,0,0,0.432,0h0.428c-0.428,0,0,0,0-0.863l0.435-0.424h0.865l0.433-0.435c-0.433,0.435,0,0,0-0.865
			l0.426-0.435c-0.426,0.435,0,0,0.869,0l0.426-0.433v-0.86l0.433-0.43c-0.433,0.43,0,0,0.867,0l0.428-0.432
			c-0.428,0.432,0,0,0-0.869l0.435-0.43c-0.435,0.43,0,0,0.86,0c0-0.43,0-0.863,0.433-0.863l0.432-0.426l0.437-0.433
			c-0.437,0.433,0,0,0-0.87c0.858,0,0-0.43,0.858-0.43v-1.295h0.437c-0.437,0,0,0,0-0.863h0.426v-2.16h0.432v-0.863l0.437-0.432
			c-0.437,0.432,0,0,0.865,0c0-0.869,2.154-0.433,2.154-1.293c0,0,0.869,0,0.869-0.863c-0.869,0.863,0,0.863,0.86,0l0.435-0.432
			l0.424-0.435c0-0.865,0.869-0.865,0.869-0.865v-0.435c0.432-0.428,0.867-0.428,0.867-1.288l0.428-0.435l0.431-0.43
			c-0.431,0.43,0,0,0.863,0c-1.295,0.43-0.863,0,0-0.869l0.432-0.43c0.869,0,2.162-1.725,3.025-1.725v-3.023h-0.437v-1.3h-1.295
			c-0.425,0-1.725-0.428-2.588-0.428l-0.431-0.435c0.431,0.435,0,0,0-0.426c0.431,0.861,0,0.426-0.863,0l-0.432-0.433
			c0.432,0.433,0,0,0-0.867l-0.433-0.433c0.433,0.433,0,0-0.86,0l-0.435-0.428c0.435,0.428,0,0,0-0.861c0.435,1.29,0,0.861-0.86,0
			l-0.433-0.433v-0.432h-0.435v-0.433l0,0v-0.435h-0.432v-0.426h-0.428l-0.435-0.433v-1.295h-0.432v-0.869h-0.428h-0.433v-0.431
			h-0.432l-0.437-0.428c0.437,0.428,0,0,0-0.86h-0.858v-0.435c-0.863-0.433-4.32,0-5.62,0l-0.426-0.433v-0.432h-0.433l-0.435-0.435
			c-1.725-0.86-1.725-0.86-1.725-1.723h-0.863v-0.433c0,0.433,0,0-0.432,0v-0.432h-0.863c0.863,0,0,0,0-0.863
			c-1.726,0-7.778,0.863-9.066,0v-0.431c-0.869-0.428-3.888,0-4.757,0v-2.163l-0.426-0.432h-0.435v-0.428h-0.433l-0.426-0.433
			v-1.295h0.426v-1.295h-0.426v-2.16c-0.869,0-0.869-0.433-0.869-0.869h-0.432v-2.588h-0.437v-0.86l-0.426-0.435h-0.43v-0.428
			l-0.432-0.432h-2.595l-0.432,0.432v0.428l-0.428,0.435c0.428-0.435,0,0-0.867,0l-0.433,0.424c0.433-0.424,0,0,0,0.869
			l-0.428,0.435h-0.431l-0.435,0.432v1.288h-0.428v0.869h-0.432c0.432,0,0,0-0.869,0l0,0c0,0,0,0,0-0.869c0,0.869,0,0.869-0.86,0
			l-0.435-0.426c0-0.428-0.432-0.861-0.86-0.861c0.86,0.433,0.428,0,0-0.867c-0.865,0,0-0.433-0.865-0.433v-1.723l0.432-0.432h0.433
			l0.428-0.435c-0.428,0.435,0,0,0-0.865h0.432c-0.432,0,0,0,0.435,0c0-0.863,0.86,0,0.86-0.863c0,0,1.728-0.86,1.728-1.295h1.295
			v-0.43h4.755v0.43h1.725l0.432-0.43v-1.295h-0.432v-1.295l-0.437-0.433l-6.471,0.433c0,0.86-1.295,0.86-1.726,0.86v0.435
			c0-0.435,0,0-0.869,0v0.425h-0.86c0.86,0,0,0,0,0.87h-0.867v-1.295l-0.428-0.435c0.428,0.435,0,0-0.865,0l-0.435-0.428v-0.431
			l-0.428-0.433c0.428,0.433,0,0-0.869,0l-0.426-0.435v-0.433l-0.432-0.426h-0.868v-0.435c-0.433-0.428-3.457,0-3.457-0.86h-2.59
			v-0.433h-2.153v-0.435h-0.867v-0.432h-3.023v0.432h-1.728v0.435h-1.295v0.433c-0.867,0-0.867,0-0.867,0.86h-0.428
			c-0.433,0.435,0.428,3.023,0,3.458h-0.433l-0.433,7.337h0.433v1.3l0.433,0.433h0.428v0.428l0,0v0.426h0.433v0.435h0.433v0.433
			h0.433l0,0l0.43,0.432h0.863v0.435h0.863l0.433,0.433v2.154h0.435c0.86,0,1.293,0.433,1.719,0.433v-1.298h-0.426v-2.158
			c-0.861,0,0-0.432-0.861-0.432v-1.295h-0.431c-0.435-0.428,0.431-2.597,0-3.021h-0.435v-1.295c-0.865,0,0-0.435-0.865-0.435
			v-1.293h-0.432v-2.16h0.432v-1.295h1.3l0.431,0.425v2.595h0.428c0.433,0.863,0,3.883,0.433,4.751h0.426v1.3h0.435v0.854
			c0-0.854,0,0,0.865,0v0.869l0,0c0,0,0,0,0,0.432h0.435v0.869c0.428,0,0.86,0.426,0.86,0.86l0.433,0.43h1.295l0.433,0.433v0.432
			h0.426h1.295v0.433h1.3c0,0.861,0.433,0,0.433,0.861h0.86v0.433h1.295v0.428c1.295,0.867,6.046,0,7.774,0
			c-6.479,0.867-1.728,0,0,0.867l0.435,0.433h1.293v0.432c0.432,0.435,3.021,0,3.89,0v1.723h0.432v0.867h0.861v0.433h1.295
			c-1.295,0,0,0,0,0.863h1.295l0.433,0.432v3.883c-0.86,0,0,0-0.86,0c0,0,0.86,0,0,0.869c-0.869,0,0,0.435-0.869,0.435v3.453h-0.432
			v5.613h0.432v0.865h0.435c0.433,0,0.433,0.428,0.433,0.863l0.426,0.426l0.433,0.433c-0.433-0.433,0,0,0.861,0
			c-1.295-0.433-0.861,0,0,0.867l0.433,0.433h0.865v0.428c0,0.431,0.863,0.861,1.295,0.861c-1.295-0.43-0.432,0,0,0.869
			c-1.295-1.298-0.432-0.869,0.863,0l0.432,0.43l0.433,0.435v0.86h0.435c0.86,1.728,0,9.069,0,11.229c0,1.295,0.426,4.751,0,5.611
			h-0.435v1.3c-0.433,0-0.865,0.435-1.3,0.435l-0.428,0.424v0.863c-0.865,0,0,0.432-0.865,0.432v1.728h-0.43v1.73h0.43v1.293
			c0-1.293,0,0,0.865,0c0,0.86-0.432,3.89,0,4.318h0.428v0.865c0.435,0,0.435,0.869,1.3,0.869v1.289h-0.433v0.865
			c0.433,0,2.156,0,2.156,0.435l0.432,3.455h3.027V364.651z"/>
		<g>
			<path style="fill-rule:evenodd;clip-rule:evenodd;fill:#ffffff;" d="M391.645,342.626v-2.588l4.318,1.295l3.023-10.796
				l2.593,0.867l-3.453,12.952L391.645,342.626L391.645,342.626z M391.645,317.58v-2.588l9.501,0.863l0.863-9.069l2.593,0.428
				l-1.3,11.661L391.645,317.58L391.645,317.58z M391.645,283.468v-17.277h13.389v2.593h-12.092v12.089h12.092v2.595H391.645
				L391.645,283.468z M391.645,254.534v-2.59c3.455,0,6.046-1.3,8.206-3.023c2.158-2.165,3.023-4.754,3.023-7.777
				c0-3.023-1.295-5.611-3.455-7.34c-1.728-2.16-4.32-3.028-7.774-3.028v-2.589c2.154,0,3.455,0,5.181,0.869
				c1.3,0.432,3.025,1.294,4.32,2.589c1.295,1.3,2.156,2.589,3.023,4.323c0.865,1.719,1.293,3.454,1.293,5.611
				c0,3.455-1.293,6.478-3.883,9.066C398.986,253.234,395.536,254.534,391.645,254.534L391.645,254.534z M391.645,216.533v-2.163
				h13.389v2.163H391.645L391.645,216.533z M391.645,208.327v-2.594l9.934-6.48l-9.934,0.434v-2.589h13.389v3.023L391.645,208.327
				L391.645,208.327z M391.645,185.869v-2.595c3.455,0,6.046-1.289,8.206-3.451c2.158-1.725,3.023-4.314,3.023-7.337
				c0-3.023-0.865-5.617-3.023-7.781c-2.16-1.722-4.751-3.022-8.206-3.022v-2.589c2.154,0,3.455,0.434,5.181,0.869
				c1.73,0.86,3.025,1.72,4.32,2.589c1.295,1.294,2.588,3.023,3.023,4.742c0.865,1.303,1.293,3.457,1.293,5.192
				c0,3.883-1.293,6.906-3.883,9.5C398.986,184.574,395.536,185.869,391.645,185.869L391.645,185.869z M391.645,148.294v-2.589
				h13.389v2.589H391.645L391.645,148.294z M391.645,137.074v-4.326c0.435,0.434,0.435,0.434,0.86,0.869
				c1.295,0.869,2.163,2.589,2.163,4.317l10.366-6.474v3.026l-12.529,7.766v-2.157C392.505,138.793,392.08,137.934,391.645,137.074z
				 M391.645,132.748v4.326c0-0.434-0.433-0.869-0.433-1.3c-1.295-0.863-2.59-1.289-3.89-1.289c-0.86,0-1.719,0-2.588,0.425
				c-0.86,0.432-1.295,0.863-1.726,1.295c-0.861,0.434-0.861,1.299-1.293,1.728c0,0.86,0,2.16,0,3.889v3.883h9.931v2.589h-12.52
				v-6.906c0-1.726,0-3.02,0-3.884c0.431-0.865,0.858-1.731,1.295-2.594c0.856-0.862,1.726-1.728,3.02-2.594
				c1.295-0.429,2.595-0.857,3.883-0.857C389.057,131.459,390.35,131.887,391.645,132.748L391.645,132.748z M391.645,159.094v2.589
				l0,0c-3.023,0-5.611,1.3-7.771,3.457c-1.728,1.728-3.023,4.322-3.023,7.345c0,1.289,0.425,2.589,0.425,3.448
				c0.439,1.295,1.304,2.164,2.163,3.029c0.863,1.289,2.163,2.154,3.883,3.022c1.3,0.861,3.028,1.289,4.323,1.289l0,0v2.595l0,0
				c-1.728,0-3.455-0.429-5.183-1.295c-1.728-0.434-3.023-1.728-4.316-3.023c-1.295-1.299-2.163-2.588-3.021-3.888
				c-0.437-1.729-0.869-3.457-0.869-5.178c0-1.734,0.431-3.457,1.3-5.192c0.426-1.289,1.295-3.02,2.59-4.311
				c1.293-1.3,2.588-2.161,4.316-2.595C388.19,159.528,389.917,159.094,391.645,159.094L391.645,159.094L391.645,159.094z
				 M391.645,197.098v2.589h-12.957v-2.589H391.645L391.645,197.098z M391.645,205.732v2.594l-9.499,6.043h9.499v2.163h-12.957
				v-3.023L391.645,205.732L391.645,205.732z M391.645,228.187v2.589l0,0c-3.023,0-5.611,0.869-7.771,3.028
				c-2.16,2.163-3.023,4.751-3.023,7.774c0,0.866,0,2.154,0.425,3.455c0.439,0.86,1.304,2.154,1.732,3.023
				c1.295,1.294,2.595,2.154,3.89,2.588c1.725,0.867,3.02,1.3,4.748,1.3l0,0v2.59l0,0c-1.728,0-3.455-0.432-5.183-0.867
				c-1.728-0.863-3.023-1.723-4.316-3.023c-1.295-1.294-2.163-3.022-3.021-4.317c-0.437-1.728-0.869-3.023-0.869-5.183
				c0-1.723,0.431-3.457,0.869-4.751c0.858-1.726,1.726-3.023,3.021-4.317c1.293-1.3,2.588-2.589,4.316-3.02
				C388.19,228.187,389.917,228.187,391.645,228.187L391.645,228.187L391.645,228.187z M391.645,266.191v17.277h-12.52v-2.595
				h11.655v-12.089h-11.655v-2.593H391.645L391.645,266.191z M391.645,314.992v2.588l-14.252-1.725l0.43-2.59L391.645,314.992
				L391.645,314.992z M391.645,340.038v2.588l-19-4.748l3.455-13.385l2.588,0.861l-2.588,10.36l8.634,2.595l3.023-10.796l2.16,0.863
				l-2.595,10.36L391.645,340.038L391.645,340.038z M362.711,401.364v-3.456l5.185-5.618l1.727,1.73L362.711,401.364
				L362.711,401.364z M362.711,376.313v-2.595l16.845,9.073l-1.3,2.163L362.711,376.313L362.711,376.313z M362.711,371.562v-2.154
				l21.163-1.3l-19.87-10.794l1.298-2.163l22.455,12.524l-1.295,3.021L362.711,371.562z M362.711,369.407v2.154l-3.455,0.433
				l3.455,1.723v2.595l-6.913-3.883l1.3-2.595L362.711,369.407L362.711,369.407z M362.711,397.908l-2.154,2.588l-6.911-6.476
				l7.771-7.773l-2.16-2.163l-7.341,8.206l-6.476-6.476l7.339-7.773l-1.725-1.728l-9.497,9.501l19,18.14l2.154-2.59V397.908
				L362.711,397.908z M292.32,448v-2.588l4.755-2.595c2.588-1.728,4.742-3.451,5.176-6.046c0.867-2.593,0-5.183-1.293-8.206
				c-0.861-1.728-2.16-2.588-3.023-3.888c-1.295-0.863-2.595-1.288-4.314-1.723c-0.437,0-0.869,0-1.3-0.433v-2.154
				c0.432,0,1.3,0,1.725,0c2.163,0.425,3.89,1.288,5.183,2.588c1.73,0.86,3.023,2.59,3.89,4.318c1.293,2.16,1.723,3.883,2.156,6.043
				c0,2.164-0.433,4.318-1.293,6.051c-0.435,1.288-1.295,2.155-2.163,3.023c-1.295,0.86-2.59,2.154-5.178,3.448L292.32,448
				L292.32,448z M331.62,416.043l5.609,7.771l-2.151,1.295l-5.62-7.771l-16.412-8.206l2.161-1.723l13.389,6.906l-2.593-15.119
				l2.593-1.723L331.62,416.043z M292.32,420.366v2.154c-0.432,0-1.298,0.433-1.726,0.433c-1.3,0-2.593,0.86-4.32,1.723l-4.318,2.16
				l10.364,18.575l0,0V448l-0.863,0.867L280.228,429v-3.892l4.751-2.588c2.16-0.867,3.455-1.73,5.183-2.154
				C290.594,420.366,291.457,420.366,292.32,420.366L292.32,420.366z M280.228,452.75v-3.023l1.728,3.023H280.228z M280.228,425.109
				V429l-1.725-3.023L280.228,425.109L280.228,425.109z M280.228,449.727v3.023l-0.869,0.428l-4.314-7.766l-6.046,0.86v-2.16
				l4.751-0.863l-4.751-9.071v-4.746L280.228,449.727z M268.999,429.432v4.746l-1.725-3.023l-3.027,13.389l4.751-0.431v2.16
				l-5.616,0.86l-1.723,8.641h-2.595l6.051-27.208l3.451-0.433L268.999,429.432L268.999,429.432z M242.662,457.934v-2.591
				c1.72-0.432,3.455-0.865,4.748-1.73c2.158-1.295,3.453-3.886,3.885-7.341c0.433-1.295,0.433-3.023,0-4.751
				c-0.432-1.295-0.863-2.59-1.727-3.888c-0.863-0.862-1.73-1.721-2.591-2.154c-0.86-0.435-2.16-0.869-4.314-1.3v-2.59h0.432
				c2.155,0.432,3.883,1.3,5.178,1.726c1.297,0.863,2.16,1.728,3.023,2.597c1.3,1.721,2.162,3.455,2.588,5.178
				c0.435,2.16,0.435,3.888,0,6.043c-0.426,2.164-1.288,4.323-2.155,6.046c-1.297,1.3-3.023,2.595-4.751,3.456
				c-1.293,0.867-2.595,0.867-3.883,1.3C243.093,457.934,243.093,457.934,242.662,457.934z M242.662,431.588v2.59l0,0l-4.751-0.863
				l-3.89,20.728l5.185,0.869c1.295,0.432,2.588,0.432,3.456,0.432v2.591c-1.302,0-3.025-0.433-5.618-0.869l-6.045-1.293
				l5.183-25.478L242.662,431.588L242.662,431.588z M205.52,446.272v-3.023l9.5-21.16l6.477,2.588
				c1.295,0.867,2.596,1.3,3.456,1.732c0.428,0.863,1.294,1.288,1.728,2.156c0.433,1.3,0.862,2.59,0.862,3.89
				c0,1.293,0,2.588-0.428,3.883c-0.868,1.728-2.162,3.028-3.889,3.888c-1.729,0.863-3.456,0.863-5.185,0.428l1.729,11.664
				l-3.023-1.295l-1.727-14.252l2.162,0.862c1.727,0.433,3.021,0.869,4.315,0.433c1.295-0.433,2.161-1.728,3.023-3.023
				c0.433-0.865,0.433-1.728,0.433-2.588c0-0.435,0-1.3-0.433-2.16c-0.427-0.43-0.861-1.295-1.294-1.73
				c-0.434-0.433-1.729-0.868-3.456-1.728l-3.456-1.728l-9.5,21.591L205.52,446.272L205.52,446.272z M205.52,420.791v-2.16
				l1.294,0.435L205.52,420.791z M205.52,418.631v2.16v0.435l-9.502-5.618l-4.75,7.781l9.068,5.611l-1.294,2.154l-9.068-5.611
				l-5.183,7.771l9.5,5.616l-1.294,2.158l-8.64-5.178v-6.479l10.801-17.279L205.52,418.631L205.52,418.631z M205.52,443.249v3.023
				l-0.861-0.435L205.52,443.249L205.52,443.249z M184.357,410.43v-2.593l0.434-0.86l2.162,1.719L184.357,410.43z M184.357,407.837
				v2.593l-19.862,14.247l-1.727-1.288l6.478-26.781l2.155,1.3l-5.612,22.883L184.357,407.837L184.357,407.837z M184.357,429.432
				v6.479l-3.022-1.733L184.357,429.432L184.357,429.432z M136.421,389.267v-3.02l6.478,5.183l4.322-12.957l-10.8,6.046v-2.588
				l11.234-6.481l2.589,2.158l-8.64,26.346l-2.155-1.735l2.59-8.199L136.421,389.267L136.421,389.267z M136.421,360.333v-2.588
				l1.3,1.728L136.421,360.333z M136.421,357.745v2.588l-6.044,3.456v-3.021l6.044-3.455V357.745L136.421,357.745z M136.421,381.931
				v2.588l-1.289,0.865l1.289,0.863v3.02l-3.45-2.593l-2.594,1.3v-2.59L136.421,381.931z M109.654,135.342v10.797h-1.3v-13.392
				h12.955v13.392h-2.589v-10.797H109.654L109.654,135.342z M130.376,360.768v3.021l-12.523,8.206l4.75,7.773l-2.156,1.295
				l-6.05-9.932L130.376,360.768L130.376,360.768z M130.376,385.384v2.59l-4.744,3.023l-2.162-1.73L130.376,385.384L130.376,385.384
				z M108.353,346.949v-2.593l19.433-6.046l0.867,2.597L108.353,346.949L108.353,346.949z M108.353,342.626l15.544-17.7
				l-1.294-3.023l-14.25,4.313v2.593l12.094-3.883l-12.094,14.247V342.626L108.353,342.626z M108.353,315.425v-13.389l12.521-1.3
				l1.302,13.391l-2.162,0.433l-1.295-11.229l-9.066,1.295l1.294,10.799H108.353L108.353,315.425z M108.353,280.014v-2.588l0,0
				c3.021,0,5.615-0.869,7.777-3.028c2.156-2.163,3.023-4.751,3.023-7.774c0-1.295,0-2.154-0.433-3.455
				c-0.434-0.86-0.867-2.158-1.728-3.023c-1.294-1.295-2.594-2.155-3.889-3.023c-1.728-0.432-3.023-0.865-4.75-0.865l0,0v-2.59l0,0
				c1.726,0,3.456,0,5.183,0.867c1.728,0.861,3.023,1.723,4.317,3.023c1.3,1.293,2.162,2.588,3.021,4.316
				c0.434,1.295,0.868,3.023,0.868,4.749c0,1.728-0.433,3.456-0.868,5.185c-0.86,1.727-1.721,3.021-3.021,4.314
				c-1.294,1.304-2.589,2.163-4.317,3.023C111.809,279.58,110.08,280.014,108.353,280.014L108.353,280.014L108.353,280.014z
				 M108.353,220.85v-3.023c1.726,0,3.456,0.426,5.183,1.295c1.294,0.434,3.023,1.728,4.317,3.023
				c1.3,1.299,2.162,2.588,2.594,3.888c0.861,1.723,1.295,3.455,1.295,5.178c0,2.594-0.868,4.758-2.162,6.911
				c-1.295,2.157-3.021,3.889-5.183,5.183v-3.454c1.3-0.86,2.594-2.163,3.456-3.883c0.867-1.3,1.3-3.023,1.3-4.758
				c0-3.023-1.3-5.178-3.456-7.34C113.536,221.71,111.375,220.85,108.353,220.85L108.353,220.85z M108.353,207.033v-2.589h12.521
				v2.589H108.353L108.353,207.033z M108.353,192.775v-2.589h12.521v2.589H108.353L108.353,192.775z M108.353,179.392v-2.594l0,0
				c1.726,0,3.456-0.429,4.75-0.863c1.727-0.86,2.595-1.728,3.889-2.588c0.427-0.861,1.294-2.161,1.294-3.023
				c0.434-0.861,0.434-2.595,0.434-4.749v-4.323h-10.367v-2.589h12.955v7.343c0,2.157,0,3.886-0.434,5.18
				c-0.427,1.3-1.294,2.589-2.155,3.455c-1.301,1.728-2.59,2.589-4.322,3.457C112.242,178.964,110.513,179.392,108.353,179.392
				L108.353,179.392z M108.353,146.14h-1.296v-10.797h-9.501v10.797h-2.588v-13.392h13.385V146.14L108.353,146.14z M108.353,158.663
				v2.589H97.557v5.183c0,3.457,1.295,5.617,3.023,7.772c1.727,1.728,4.317,2.592,7.773,2.592v2.594
				c-2.156,0-4.318-0.428-6.046-1.294c-2.155-0.869-3.456-2.164-4.75-3.892c-0.86-0.86-1.294-2.154-1.727-3.455
				c-0.433-1.289-0.433-3.457-0.433-6.046v-6.043H108.353L108.353,158.663z M108.353,190.186v2.589h-3.885
				c-1.295,0-2.161,0-2.594,0.434c-0.861,0-1.295,0-1.722,0.432c-1.301,0.433-1.734,0.869-2.596,2.163
				c-0.432,0.86-0.86,1.728-0.86,3.023c0,1.726,0.86,3.448,2.155,4.314c1.301,0.869,3.456,1.303,6.045,1.303h3.456v2.589h-3.885
				c-3.456,0-6.051-0.869-7.344-2.163c-1.728-1.294-2.589-3.454-2.589-6.043c0-3.023,0.861-5.186,2.161-6.48
				c1.721-1.294,4.316-2.16,7.772-2.16H108.353L108.353,190.186z M108.353,217.827v3.023c0,0,0,0-0.434,0
				c-3.022,0-5.612,0.861-7.766,3.02c-2.161,1.728-3.028,4.317-3.028,7.34c0,1.735,0,3.457,0.867,4.758
				c0.861,1.719,2.161,3.023,3.45,3.883v3.023c-2.156-1.295-3.885-2.595-5.179-4.752c-1.294-2.154-1.727-4.317-1.727-6.911
				c0-3.455,1.294-6.906,3.883-9.5C101.013,219.121,104.469,217.827,108.353,217.827L108.353,217.827L108.353,217.827z
				 M108.353,253.667v2.59c-3.023,0-5.612,0.865-7.773,3.028c-2.162,2.16-3.456,4.748-3.456,7.771c0,2.59,1.294,5.178,3.456,7.341
				c2.162,2.16,4.75,3.028,7.773,3.028v2.588c-1.729,0-3.456-0.433-5.179-0.869c-1.299-0.432-2.594-1.295-3.888-2.588
				c-1.729-1.3-2.589-2.59-3.456-4.323c-0.861-1.719-1.294-3.449-1.294-5.611c0-3.455,1.294-6.913,4.316-9.501
				C101.441,254.968,104.469,253.667,108.353,253.667L108.353,253.667z M108.353,302.036v13.389l0,0l-1.296-10.799l-9.066,0.865
				l0.861,11.224h-2.589l-1.294-13.383L108.353,302.036L108.353,302.036z M108.353,326.216v2.593l-9.502,3.023l-0.861-2.16
				L108.353,326.216L108.353,326.216z M108.353,339.173v3.453l-2.591,2.59l2.591-0.86v2.593l-4.752,1.29l-0.86-3.023
				L108.353,339.173z"/>
			<path style="fill-rule:evenodd;clip-rule:evenodd;fill:none;stroke:#ffffff;stroke-width:0.4399;" d="M109.654,135.342v10.797
				h-2.596v-10.797h-9.501v10.797h-2.588v-13.392h26.34v13.392h-2.589v-10.797H109.654L109.654,135.342z M118.72,161.251H97.557
				v5.183c0,3.457,1.295,5.617,3.023,7.772c1.727,1.728,4.317,2.592,7.773,2.592c1.726,0,3.456-0.429,4.75-0.863
				c1.727-0.86,2.595-1.728,3.889-2.588c0.427-0.861,1.294-2.161,1.294-3.023c0.434-0.861,0.434-2.595,0.434-4.749V161.251
				L118.72,161.251z M121.309,158.663v7.343c0,2.157,0,3.886-0.434,5.18c-0.427,1.3-1.294,2.589-2.155,3.455
				c-1.301,1.728-2.59,2.589-4.322,3.457c-2.156,0.866-3.884,1.294-6.044,1.294c-2.156,0-4.318-0.428-6.046-1.294
				c-2.155-0.869-3.456-2.164-4.75-3.892c-0.86-0.86-1.294-2.154-1.727-3.455c-0.433-1.289-0.433-3.457-0.433-6.046v-6.043H121.309
				L121.309,158.663z M120.875,190.186v2.589h-16.406c-1.295,0-2.161,0-2.594,0.434c-0.861,0-1.295,0-1.722,0.432
				c-1.301,0.433-1.734,0.869-2.596,2.163c-0.432,0.86-0.86,1.728-0.86,3.023c0,1.726,0.86,3.448,2.155,4.314
				c1.301,0.869,3.456,1.303,6.045,1.303h15.978v2.589h-16.406c-3.456,0-6.051-0.869-7.344-2.163
				c-1.728-1.294-2.589-3.454-2.589-6.043c0-3.023,0.861-5.186,2.161-6.48c1.721-1.294,4.316-2.16,7.772-2.16H120.875
				L120.875,190.186z M114.398,239.85c1.3-0.86,2.594-2.163,3.456-3.883c0.867-1.3,1.3-3.023,1.3-4.758
				c0-3.023-1.3-5.178-3.456-7.34c-2.162-2.16-4.75-3.02-7.779-3.02c-3.022,0-5.612,0.861-7.766,3.02
				c-2.161,1.728-3.028,4.317-3.028,7.34c0,1.735,0,3.457,0.867,4.758c0.861,1.719,2.161,3.023,3.45,3.883v3.023
				c-2.156-1.295-3.885-2.595-5.179-4.752c-1.294-2.154-1.727-4.317-1.727-6.911c0-3.455,1.294-6.906,3.883-9.5
				c2.595-2.589,6.051-3.884,9.935-3.884c1.726,0,3.456,0.426,5.183,1.295c1.294,0.434,3.023,1.728,4.317,3.023
				c1.3,1.299,2.162,2.588,2.594,3.888c0.861,1.723,1.295,3.455,1.295,5.178c0,2.594-0.868,4.758-2.162,6.911
				c-1.295,2.157-3.021,3.889-5.183,5.183V239.85L114.398,239.85z M108.353,256.257c-3.023,0-5.612,0.865-7.773,3.028
				c-2.162,2.16-3.456,4.748-3.456,7.771c0,2.59,1.294,5.178,3.456,7.341c2.162,2.16,4.75,3.028,7.773,3.028
				c3.021,0,5.615-0.869,7.777-3.028c2.156-2.163,3.023-4.751,3.023-7.774c0-1.295,0-2.154-0.433-3.455
				c-0.434-0.86-0.867-2.158-1.728-3.023c-1.294-1.295-2.594-2.155-3.889-3.023C111.375,256.69,110.08,256.257,108.353,256.257
				L108.353,256.257z M108.353,253.667c1.726,0,3.456,0,5.183,0.867c1.728,0.861,3.023,1.723,4.317,3.023
				c1.3,1.293,2.162,2.588,3.021,4.316c0.434,1.295,0.868,3.023,0.868,4.749c0,1.728-0.433,3.456-0.868,5.185
				c-0.86,1.727-1.721,3.021-3.021,4.314c-1.294,1.304-2.589,2.163-4.317,3.023c-1.727,0.435-3.456,0.869-5.183,0.869
				c-1.729,0-3.456-0.433-5.179-0.869c-1.299-0.432-2.594-1.295-3.888-2.588c-1.729-1.3-2.589-2.59-3.456-4.323
				c-0.861-1.719-1.294-3.449-1.294-5.611c0-3.455,1.294-6.913,4.316-9.501C101.441,254.534,104.469,253.667,108.353,253.667
				L108.353,253.667z M109.654,304.626l1.294,10.799h-2.594l-1.296-10.799l-9.066,0.865l0.861,11.224h-2.589l-1.294-13.383
				l25.906-2.595l1.302,13.391l-2.162,0.433l-1.295-11.229L109.654,304.626L109.654,304.626z M105.763,345.216l22.024-6.906
				l0.867,2.597l-25.052,7.332l-0.86-3.023l17.706-20.289l-21.596,6.906l-0.861-2.16l24.613-7.769l1.294,3.023L105.763,345.216
				L105.763,345.216z M120.447,381.063l-6.05-9.932l22.023-13.817l1.3,2.16l-19.868,12.522l4.75,7.773L120.447,381.063
				L120.447,381.063z M125.632,390.997l-2.162-1.73l24.184-13.817l2.589,2.158l-8.64,26.346l-2.155-1.735l2.59-8.199l-9.068-7.346
				L125.632,390.997L125.632,390.997z M142.899,391.43l4.322-12.957l-12.089,6.911L142.899,391.43L142.899,391.43z M169.245,396.608
				l2.155,1.3l-5.612,22.883l19.003-13.813l2.162,1.719l-22.458,15.98l-1.727-1.288L169.245,396.608L169.245,396.608z
				 M191.268,423.389l9.068,5.611l-1.294,2.154l-9.068-5.611l-5.183,7.771l9.5,5.616l-1.294,2.158l-11.662-6.911l13.823-22.025
				l11.656,6.913l-1.294,2.16l-9.502-5.618L191.268,423.389L191.268,423.389z M216.314,425.109l-9.5,21.591l-2.155-0.863
				l10.361-23.748l6.477,2.588c1.295,0.867,2.596,1.3,3.456,1.732c0.428,0.863,1.294,1.288,1.728,2.156
				c0.433,1.3,0.862,2.59,0.862,3.89c0,1.293,0,2.588-0.428,3.883c-0.868,1.728-2.162,3.028-3.889,3.888
				c-1.729,0.863-3.456,0.863-5.185,0.428l1.729,11.664l-3.023-1.295l-1.727-14.252l2.162,0.862
				c1.727,0.433,3.021,0.869,4.315,0.433c1.295-0.433,2.161-1.728,3.023-3.023c0.433-0.865,0.433-1.728,0.433-2.588
				c0-0.435,0-1.3-0.433-2.16c-0.427-0.43-0.861-1.295-1.294-1.73c-0.434-0.433-1.729-0.868-3.456-1.728L216.314,425.109
				L216.314,425.109z M237.91,433.315l-3.89,20.728l5.185,0.869c3.456,0.861,6.043,0.432,8.204-1.298
				c2.158-1.295,3.453-3.886,3.885-7.341c0.433-1.295,0.433-3.023,0-4.751c-0.432-1.295-0.863-2.59-1.727-3.888
				c-0.863-0.862-1.73-1.721-2.591-2.154c-0.86-0.435-2.16-0.869-4.314-1.3L237.91,433.315L237.91,433.315z M236.181,430.295
				l6.912,1.293c2.155,0.432,3.883,1.3,5.178,1.726c1.297,0.863,2.16,1.728,3.023,2.597c1.3,1.721,2.162,3.455,2.588,5.178
				c0.435,2.16,0.435,3.888,0,6.043c-0.426,2.164-1.288,4.323-2.155,6.046c-1.297,1.3-3.023,2.595-4.751,3.456
				c-1.293,0.867-2.595,0.867-3.883,1.3c-1.3,0-3.456-0.433-6.05-0.869l-6.045-1.293L236.181,430.295L236.181,430.295z
				 M261.66,455.773h-2.595l6.051-27.208l3.451-0.433l13.389,24.618l-2.597,0.428l-4.314-7.766l-11.662,1.719L261.66,455.773
				L261.66,455.773z M273.75,443.249l-6.476-12.094l-3.027,13.389L273.75,443.249L273.75,443.249z M281.956,426.837l10.364,18.575
				l4.755-2.595c2.588-1.728,4.742-3.451,5.176-6.046c0.867-2.593,0-5.183-1.293-8.206c-0.861-1.728-2.16-2.588-3.023-3.888
				c-1.295-0.863-2.595-1.288-4.314-1.723c-0.869-0.433-2.163-0.433-3.027,0c-1.3,0-2.593,0.86-4.32,1.723L281.956,426.837
				L281.956,426.837z M278.503,425.977l6.476-3.456c2.16-0.867,3.455-1.73,5.183-2.154c1.295,0,2.59-0.435,3.883,0
				c2.163,0.425,3.89,1.288,5.183,2.588c1.73,0.86,3.023,2.59,3.89,4.318c1.293,2.16,1.723,3.883,2.156,6.043
				c0,2.164-0.433,4.318-1.293,6.051c-0.435,1.288-1.295,2.155-2.163,3.023c-1.295,0.86-2.59,2.154-5.178,3.448l-5.183,3.03
				L278.503,425.977L278.503,425.977z M331.62,416.043l5.609,7.771l-2.151,1.295l-5.62-7.771l-16.412-8.206l2.161-1.723
				l13.389,6.906l-2.593-15.119l2.593-1.723L331.62,416.043L331.62,416.043z M351.915,392.29l7.341-8.206l2.16,2.163l-7.771,7.773
				l6.911,6.476l7.339-8.206l1.727,1.73l-9.066,9.934l-19-18.14l9.497-9.501l1.725,1.728l-7.339,7.773L351.915,392.29
				L351.915,392.29z M383.874,368.107l-19.87-10.794l1.298-2.163l22.455,12.524l-1.295,3.021l-27.206,1.3l20.3,10.796l-1.3,2.163
				l-22.458-12.524l1.3-2.595L383.874,368.107L383.874,368.107z M384.734,338.31l3.023-10.796l2.16,0.863l-2.595,10.36l8.641,2.595
				l3.023-10.796l2.593,0.867l-3.453,12.952l-25.481-6.478l3.455-13.385l2.588,0.861l-2.588,10.36L384.734,338.31L384.734,338.31z
				 M404.602,307.214l-1.3,11.661l-25.909-3.02l0.43-2.59l23.323,2.59l0.863-9.069L404.602,307.214L404.602,307.214z
				 M405.034,280.873v2.595h-25.909v-2.595h11.655v-12.089h-11.655v-2.593h25.909v2.593h-12.092v12.089H405.034L405.034,280.873z
				 M391.645,251.944c3.023,0,6.046-0.865,8.206-3.023c2.158-2.165,3.023-4.754,3.023-7.777c0-3.023-1.295-5.611-3.455-7.34
				c-2.164-2.16-4.751-3.028-7.774-3.028c-3.023,0-5.611,0.869-7.771,3.028c-2.16,2.163-3.023,4.751-3.023,7.774
				c0,0.866,0,2.154,0.425,3.455c0.439,0.86,1.304,2.154,1.732,3.023c1.295,1.294,2.595,2.154,3.89,2.588
				C388.622,251.511,389.917,251.944,391.645,251.944L391.645,251.944z M391.645,254.534c-1.728,0-3.455-0.432-5.183-0.867
				c-1.728-0.863-3.023-1.723-4.316-3.023c-1.295-1.294-2.163-3.022-3.021-4.317c-0.437-1.728-0.869-3.023-0.869-5.183
				c0-1.723,0.431-3.457,0.869-4.751c0.858-1.726,1.726-3.023,3.021-4.317c1.293-1.3,2.588-2.589,4.316-3.02
				c1.728-0.869,3.455-0.869,5.183-0.869c1.728,0,3.455,0,5.181,0.869c1.3,0.432,3.025,1.294,4.32,2.589
				c1.295,1.3,2.156,2.589,3.023,4.323c0.865,1.719,1.293,3.454,1.293,5.611c0,3.455-1.293,6.478-3.883,9.066
				C398.556,253.234,395.536,254.534,391.645,254.534L391.645,254.534z M401.579,199.252l-22.892,0.434v-2.589h26.346v3.023
				l-22.888,14.249h22.888v2.163h-26.346v-3.023L401.579,199.252L401.579,199.252z M391.645,183.274
				c3.455,0,6.046-1.289,8.206-3.451c2.158-1.725,3.023-4.314,3.023-7.337c0-3.023-0.865-5.617-3.023-7.781
				c-2.16-1.722-4.751-3.022-8.206-3.022c-3.023,0-5.611,1.3-7.771,3.457c-1.728,1.728-3.023,4.322-3.023,7.345
				c0,1.289,0.425,2.589,0.425,3.448c0.439,1.295,1.304,2.164,2.163,3.029c0.863,1.289,2.163,2.154,3.883,3.022
				C388.622,182.846,390.35,183.274,391.645,183.274L391.645,183.274z M391.645,185.869c-1.728,0-3.455-0.429-5.183-1.295
				c-1.728-0.434-3.023-1.728-4.316-3.023c-1.295-1.299-2.163-2.588-3.021-3.888c-0.437-1.729-0.869-3.457-0.869-5.178
				c0-1.734,0.431-3.457,1.3-5.192c0.426-1.289,1.295-3.02,2.59-4.311c1.293-1.3,2.588-2.161,4.316-2.595
				c1.728-0.86,3.455-1.294,5.183-1.294c2.154,0,3.455,0.434,5.181,0.869c1.73,0.86,3.025,1.72,4.32,2.589
				c1.295,1.294,2.588,3.023,3.023,4.742c0.865,1.303,1.293,3.457,1.293,5.192c0,3.883-1.293,6.906-3.883,9.5
				C398.986,184.574,395.536,185.869,391.645,185.869L391.645,185.869z M381.714,145.705h23.32v2.589h-25.909v-6.906
				c0-1.726,0-3.02,0-3.884c0.431-0.865,0.858-1.731,1.295-2.594c0.856-0.862,1.726-1.728,3.02-2.594
				c1.295-0.429,2.595-0.857,3.883-0.857c1.736,0,3.458,0.857,5.183,2.157c1.295,0.869,2.163,2.589,2.163,4.317l10.366-6.474v3.026
				l-12.529,7.766v-2.157c0-1.726-0.425-3.02-1.293-4.32c-1.295-0.863-2.59-1.289-3.89-1.289c-0.86,0-1.719,0-2.588,0.425
				c-0.86,0.432-1.295,0.863-1.726,1.295c-0.861,0.434-0.861,1.299-1.293,1.728c0,0.86,0,2.16,0,3.889V145.705z"/>
		</g>
		<g>
			<path style="fill-rule:evenodd;clip-rule:evenodd;fill:#ffffff;" d="M397.691,62.36v-2.16c0.865,0,1.295,0,1.728-0.866
				c0.431-0.428,0.431-1.289,0.431-2.589v-7.34c0-0.862,0-1.726-0.431-2.163c0-0.431-0.863-0.861-1.728-0.861v-1.728
				c1.728,0,2.588,0.434,3.455,1.295c0.433,0.862,0.863,2.162,0.863,4.32v6.909c0,1.729-0.43,3.023-1.295,3.889
				C400.279,61.93,399.419,62.36,397.691,62.36z M397.691,44.654v1.728c-0.435,0-0.865,0.429-1.295,0.861
				c-0.433,0.437-0.433,1.731-0.433,2.589v6.48c0,1.734,0,2.595,0.433,3.023c0,0.432,0.86,0.866,1.295,0.866v2.16
				c-1.295,0-2.155-0.431-3.023-1.294c-0.432-0.866-0.869-2.594-0.869-4.755v-6.48c0-1.72,0.437-3.02,1.3-3.883
				C395.536,45.089,396.396,44.654,397.691,44.654L397.691,44.654z M387.757,54.158v-2.157c0.865,0,1.3,0,1.728-0.432
				c0-0.434,0.432-1.3,0.432-2.595l0,0c0-0.862-0.432-1.294-0.432-1.731c-0.428-0.431-0.863-0.431-1.728-0.431v-2.157h0.433
				c1.295,0,2.16,0.434,2.59,1.295c0.865,0.433,0.865,1.731,0.865,3.025l0,0c0,1.295-0.433,2.595-0.865,3.455
				c-0.43,0.434-0.863,0.434-1.723,0.86c0.86,0,1.293,0.435,1.723,0.869c0.432,0.431,0.432,1.294,0.432,2.588
				c0,1.3,0,2.161,0.433,2.589v0.432c0,0.434,0,0.869,0,1.3c0,0.437,0,0.437,0,0.863h-0.865h-0.863c0-0.426,0-0.863-0.432-1.295
				v-0.434v-0.434c0-0.86,0-1.72,0-2.589c0-0.866-0.428-1.725-0.428-2.154C388.622,54.589,388.19,54.158,387.757,54.158z
				 M387.757,44.654v2.157h-0.435h-1.288v5.617h1.288c0,0,0.435,0,0.435-0.428v2.157h-0.435h-1.288v7.772h-1.3h-0.86V44.654h0.86
				H387.757L387.757,44.654z M377.393,58.046v-1.734h1.732l-1.732-9.5l0,0l0,0v-2.157l0,0h1.295l3.027,17.275h-0.863h-0.869
				l-0.858-3.884H377.393z M377.393,44.654v2.157l-1.293,9.5h1.293v1.734h-1.725L374.8,61.93h-0.86h-0.861l3.021-17.275H377.393
				L377.393,44.654z M349.322,54.158v-2.157c0.869,0,1.3,0,1.3-0.432c0.432-0.434,0.862-1.3,0.862-2.595l0,0
				c0-0.862-0.43-1.294-0.862-1.731c0-0.431-0.432-0.431-1.3-0.431v-2.157h0.432c1.3,0,2.162,0.434,2.588,1.295
				c0.437,0.433,0.869,1.731,0.869,3.025l0,0c0,1.295-0.432,2.595-0.869,3.455c-0.426,0.434-1.288,0.434-1.719,0.86
				c0.862,0,1.293,0.435,1.719,0.869c0.437,0.431,0.437,1.294,0.437,2.588c0,1.3,0,2.161,0,2.589v0.432
				c0.432,0.434,0.432,0.869,0.432,1.3c0,0.437,0,0.437,0,0.863h-0.869h-0.858c-0.43-0.426-0.43-0.863-0.43-1.295v-0.434v-0.434
				c0-0.86,0-1.72,0-2.589c0-0.866-0.432-1.725-0.863-2.154C350.19,54.589,349.753,54.158,349.322,54.158L349.322,54.158z
				 M355.373,61.93V44.654h6.043v0.869v1.289h-4.318v5.189h4.318v1.288v0.869h-4.318v6.043h4.746v0.866v0.863H355.373L355.373,61.93
				z M366.602,46.812h-3.458v-1.289v-0.869h8.634v0.869v1.289h-3.456V61.93h-0.863h-0.856V46.812z M349.322,44.654v2.157h-0.43
				h-1.728v5.617h1.728c0,0,0.43,0,0.43-0.428v2.157h-0.43h-1.728v7.772h-0.865h-0.86V44.654h0.86H349.322L349.322,44.654z
				 M319.958,62.36v-2.16c0.86,0,1.297,0,1.728-0.866c0.432-0.428,0.432-1.289,0.432-3.023v-6.043c0-1.725,0-2.589-0.432-3.026
				c-0.432-0.431-0.869-0.861-1.728-0.861v-1.728c1.297,0,2.592,0.434,3.023,1.295c0.863,0.433,0.863,1.731,0.863,3.456v6.478
				c0,1.728-0.432,3.023-0.863,4.317l2.163-0.434v2.163h-2.163L319.958,62.36L319.958,62.36z M334.21,57.612
				c0,1.723-0.435,2.589-0.869,3.455c-0.86,0.863-1.721,1.294-3.021,1.294c-1.293,0-2.156-0.431-2.588-1.294
				c-0.863-0.866-1.295-1.732-1.295-3.455V44.654h0.86h1.3v12.523c0,0.869,0,1.729,0.43,2.157c0.432,0.866,0.865,0.866,1.293,0.866
				c0.867,0,1.3,0,1.732-0.866c0-0.428,0.43-1.289,0.43-2.157V44.654h0.86h0.869V57.612L334.21,57.612z M336.798,61.93V44.654h6.478
				v0.869v1.289h-4.314v5.189h3.883v1.288v0.869h-3.883v6.043h4.314v0.866v0.863H336.798z M319.958,44.654v1.728
				c-0.435,0-1.295,0.429-1.295,0.861c-0.433,0.869-0.865,1.731-0.865,3.026v6.043c0,1.734,0.432,2.595,0.432,3.023
				c0.433,0.866,0.869,0.866,1.728,0.866v2.16h-0.435c-1.293,0-2.16-0.431-2.588-1.294c-0.431-0.866-0.86-2.594-0.86-4.755v-6.48
				c0-1.72,0.428-3.02,0.86-3.883C317.798,45.089,318.663,44.654,319.958,44.654L319.958,44.654z M296.64,61.93v-1.729
				c0.863,0,1.295-0.434,1.723-0.866c0.435-0.428,0.435-1.289,0.435-2.589v-6.914c0-1.289,0-2.152-0.435-2.589
				c-0.428-0.431-0.86-0.431-1.723-0.431v-2.157c1.295,0,2.588,0.434,3.023,1.295c0.86,0.862,1.295,2.162,1.295,3.883v6.914
				c0,1.727-0.435,3.02-0.861,3.889c-0.868,0.869-1.733,1.295-3.021,1.295H296.64L296.64,61.93z M303.118,61.93V44.654h6.48v0.869
				v1.289h-4.323v5.189h3.89v1.288v0.869h-3.89v6.043h4.323v0.866v0.863H303.118z M296.64,44.654v2.157l0,0h-1.726v13.389h1.726l0,0
				v1.729h-3.019h-0.869V44.654h0.869h2.588H296.64L296.64,44.654z M281.956,58.046v-1.734h1.295l-1.295-9.5l0,0l0,0v-2.157l0,0
				h1.295l3.023,17.275h-0.863h-1.295l-0.43-3.884H281.956z M281.956,44.654v2.157l-1.728,9.5h1.728v1.734h-2.16l-0.437,3.884
				h-0.856h-0.863l3.023-17.275H281.956L281.956,44.654z M257.77,62.36v-2.16c0.869,0,1.295,0,1.73-0.866
				c0.433-0.428,0.433-1.289,0.433-2.589v-7.34c0-0.862,0-1.726-0.433-2.163c-0.435-0.431-0.861-0.861-1.73-0.861v-1.728
				c1.295,0,2.59,0.434,3.023,1.295c0.867,0.862,0.867,2.162,0.867,4.32v6.909c0,1.729,0,3.023-0.867,3.889
				C260.36,61.93,259.065,62.36,257.77,62.36L257.77,62.36z M265.98,61.93h-0.863h-0.869V44.654h1.732h1.295l2.588,13.818l0,0
				l2.595-13.818h1.293h1.727V61.93h-0.86h-0.867V46.812l0,0l-3.023,15.118h-0.865h-0.863l-3.02-15.118V61.93z M257.77,44.654v1.728
				c-0.86,0-1.293,0.429-1.293,0.861c-0.432,0.437-0.86,1.731-0.86,2.589v6.48c0,1.734,0.428,2.595,0.428,3.023
				c0.432,0.432,0.865,0.866,1.725,0.866v2.16c-1.293,0-2.588-0.431-3.02-1.294c-0.433-0.866-0.869-2.594-0.869-4.755v-6.48
				c0-1.72,0.435-3.02,0.869-3.883C255.617,45.089,256.477,44.654,257.77,44.654L257.77,44.654z M236.616,62.36v-2.16
				c0.86,0,1.295,0,1.723-0.866c0.432-0.428,0.432-1.289,0.432-2.589v-7.34c0-0.862,0-1.726-0.432-2.163
				c-0.428-0.431-0.863-0.861-1.723-0.861v-1.728c1.723,0,2.59,0.434,3.021,1.295c0.863,0.862,0.863,2.162,0.863,4.32v6.909
				c0,1.729,0,3.023-0.863,3.889C239.205,61.93,237.91,62.36,236.616,62.36L236.616,62.36z M244.816,61.93h-0.861h-0.861V44.654
				h1.288h1.735l3.451,15.112V44.654h0.863h0.863V61.93h-1.295h-1.728l-3.455-14.686V61.93z M236.616,44.654v1.728
				c-0.434,0-1.301,0.429-1.301,0.861c-0.433,0.437-0.433,1.731-0.433,2.589v6.48c0,1.734,0,2.595,0.433,3.023
				c0,0.432,0.434,0.866,1.301,0.866v2.16c-1.301,0-2.595-0.431-3.022-1.294c-0.434-0.866-0.868-2.594-0.868-4.755v-6.48
				c0-1.72,0.433-3.02,0.868-3.883C234.455,45.089,235.315,44.654,236.616,44.654L236.616,44.654z M206.38,58.046v-1.734h1.3
				l-1.3-9.5l0,0l0,0v-2.157l0,0h1.3l3.023,17.275h-0.868h-1.294l-0.427-3.884H206.38L206.38,58.046z M220.637,57.612
				c0,1.723-0.434,2.589-0.867,3.455c-0.861,0.863-1.729,1.294-3.023,1.294c-1.295,0-2.162-0.431-3.021-1.294
				c-0.434-0.866-0.868-1.732-0.868-3.455V44.654h0.868h0.86v12.523c0,0.869,0.434,1.729,0.434,2.157
				c0.433,0.866,0.86,0.866,1.727,0.866c0.434,0,1.294,0,1.294-0.866c0.434-0.428,0.434-1.289,0.434-2.157V44.654h1.295h0.867
				V57.612L220.637,57.612z M225.815,46.812h-3.456v-1.289v-0.869h8.64v0.869v1.289h-3.456V61.93h-0.862h-0.867V46.812z
				 M206.38,44.654v2.157l-1.721,9.5h1.721v1.734h-2.156l-0.433,3.884h-0.861h-0.866l3.022-17.275H206.38L206.38,44.654z
				 M191.702,61.93v-1.729c0.433,0,1.295-0.434,1.295-0.866c0.433-0.428,0.433-1.289,0.433-2.589v-6.914
				c0-1.289,0-2.152-0.433-2.589c0-0.431-0.861-0.431-1.295-0.431v-2.157c1.295,0,2.155,0.434,2.589,1.295
				c0.867,0.862,1.294,2.162,1.294,3.883v6.914c0,1.727-0.427,3.02-0.861,3.889c-0.433,0.869-1.294,1.295-2.588,1.295H191.702z
				 M191.702,44.654v2.157c-0.434,0-0.434,0-0.434,0h-1.727v13.389h1.727h0.434v1.729h-3.023h-0.867V44.654h0.867h2.156
				C191.268,44.654,191.268,44.654,191.702,44.654L191.702,44.654z M180.9,58.046v-1.734h1.734l-1.734-9.5l0,0l0,0v-2.157l0,0h1.3
				l3.456,17.275h-1.3h-0.861l-0.433-3.884H180.9z M180.9,44.654v2.157l-1.288,9.5h1.288v1.734h-1.721l-0.867,3.884h-0.861h-0.868
				l3.457-17.275H180.9L180.9,44.654z M170.973,61.93v-1.729c0.427,0,1.295-0.434,1.295-0.866c0.433-0.428,0.433-1.289,0.433-2.589
				v-6.914c0-1.289,0-2.152-0.433-2.589c-0.435-0.431-0.868-0.431-1.295-0.431v-2.157c1.295,0,2.162,0.434,2.589,1.295
				c0.867,0.862,1.294,2.162,1.294,3.883v6.914c0,1.727-0.427,3.02-0.861,3.889c-0.433,0.869-1.294,1.295-2.594,1.295H170.973z
				 M170.973,44.654v2.157c-0.434,0-0.434,0-0.434,0h-1.727v13.389h1.727h0.434v1.729h-3.023h-1.294V44.654h1.294h2.162
				C170.539,44.654,170.539,44.654,170.973,44.654L170.973,44.654z M146.788,54.158v-2.157c0.433,0,0.867,0,1.294-0.432
				c0.433-0.434,0.433-1.3,0.433-2.595l0,0c0-0.862,0-1.294-0.433-1.731c-0.427-0.431-0.861-0.431-1.294-0.431v-2.157h0.433
				c0.861,0,1.729,0.434,2.589,1.295c0.434,0.433,0.868,1.731,0.868,3.025l0,0c0,1.295-0.433,2.595-1.3,3.455
				c-0.427,0.434-0.861,0.434-1.722,0.86c0.861,0,1.722,0.435,1.722,0.869c0.433,0.431,0.867,1.294,0.867,2.588
				c0,1.3,0,2.161,0,2.589v0.432c0,0.434,0,0.869,0,1.3c0.433,0.437,0.433,0.437,0.433,0.863h-0.868h-1.294c0-0.426,0-0.863,0-1.295
				v-0.434v-0.434c-0.433-0.86-0.433-1.72-0.433-2.589c0-0.866,0-1.725-0.427-2.154C147.655,54.589,147.221,54.158,146.788,54.158
				L146.788,54.158z M158.017,49.832v-0.426c0-1.294,0-1.726,0-2.163c-0.434-0.431-0.861-0.861-1.296-0.861
				c-0.866,0-1.3,0.429-1.727,0.429c-0.434,0.431-0.434,1.3-0.434,2.162c0,0.432,0,1.295,0.434,1.726c0.427,0,0.861,0.869,1.727,1.3
				c1.296,0.862,2.59,1.723,3.022,2.588c0.433,0.435,0.433,1.295,0.433,2.589c0,1.729,0,3.023-0.866,3.889
				c-0.861,0.863-1.728,1.294-3.023,1.294c-1.294,0-2.589-0.431-3.023-1.294c-0.433-0.866-0.866-2.16-0.866-3.889v-0.432v-0.434
				h1.733v0.434c0,1.3,0.427,2.161,0.427,2.589c0.434,0.866,0.861,0.866,1.728,0.866c0.868,0,1.295,0,1.729-0.434
				c0.433-0.432,0.433-1.294,0.433-2.154c0-0.866,0-1.3-0.433-1.728c-0.434-0.432-0.861-1.295-2.161-1.726
				c-1.296-0.869-2.156-1.729-2.591-2.589c-0.433-0.434-0.433-1.3-0.433-2.595c0-1.294,0-2.592,0.867-3.451
				c0.433-0.434,1.722-0.869,3.022-0.869c1.296,0,2.156,0,2.59,0.869c0.433,0.86,0.866,1.72,0.866,3.451v0.432v0.426H158.017
				L158.017,49.832z M162.333,44.654h0.868h0.861V61.93H163.2h-0.868V44.654z M107.058,57.612c0,1.723,0,2.589-0.86,3.455
				c-0.434,0.863-1.728,1.294-3.023,1.294c-1.299,0-2.161-0.431-2.594-1.294c-0.861-0.866-1.294-1.732-1.294-3.455V44.654h0.867
				h1.289v12.523c0,0.869,0,1.729,0.433,2.157c0.433,0.866,0.867,0.866,1.299,0.866c0.861,0,1.295,0,1.723-0.866
				c0.433-0.428,0.433-1.289,0.433-2.157V44.654h0.867h0.86V57.612L107.058,57.612z M146.788,44.654v2.157c-0.434,0-0.434,0-0.434,0
				h-1.722v5.617h1.722c0,0,0,0,0.434-0.428v2.157c-0.434,0-0.434,0-0.868,0h-1.289v7.772h-0.867h-0.867V44.654h0.867H146.788
				L146.788,44.654z M111.375,61.93h-0.861h-0.86V44.654h1.721h1.3l3.456,15.112V44.654h0.861h0.861V61.93h-1.294h-1.729
				l-3.456-14.686V61.93L111.375,61.93z M120.447,44.654h0.861h0.868V61.93h-0.868h-0.861V44.654L120.447,44.654z M124.33,44.654
				h0.868h0.861l2.162,14.68l2.156-14.68h0.866h1.294l-3.021,17.275h-1.294h-1.3L124.33,44.654L124.33,44.654z M134.265,61.93
				V44.654h6.044v0.869v1.289h-4.316v5.189h4.316v1.288v0.869h-4.316v6.043h4.75v0.866v0.863H134.265z"/>
			<path style="fill-rule:evenodd;clip-rule:evenodd;fill:none;stroke:#ffffff;stroke-width:0.4399;" d="M107.058,57.612
				c0,1.723,0,2.589-0.86,3.455c-0.434,0.863-1.728,1.294-3.023,1.294c-1.299,0-2.161-0.431-2.594-1.294
				c-0.861-0.866-1.294-1.732-1.294-3.455V44.654h0.867h1.289v12.523c0,0.869,0,1.729,0.433,2.157
				c0.433,0.866,0.867,0.866,1.299,0.866c0.861,0,1.295,0,1.723-0.866c0.433-0.428,0.433-1.289,0.433-2.157V44.654h0.867h0.86
				V57.612L107.058,57.612z M111.375,61.93h-0.861h-0.86V44.654h1.721h1.3l3.456,15.112V44.654h0.861h0.861V61.93h-1.294h-1.729
				l-3.456-14.686V61.93L111.375,61.93z M120.447,44.654h0.861h0.868V61.93h-0.868h-0.861V44.654L120.447,44.654z M124.33,44.654
				h0.868h0.861l2.162,14.68l2.156-14.68h0.866h1.294l-3.021,17.275h-1.294h-1.3L124.33,44.654L124.33,44.654z M134.265,61.93
				V44.654h6.044v0.869v1.289h-4.316v5.189h4.316v1.288v0.869h-4.316v6.043h4.75v0.866v0.863H134.265L134.265,61.93z
				 M142.899,44.654h0.867h3.456c0.861,0,1.729,0.434,2.589,1.295c0.434,0.433,0.868,1.731,0.868,3.025l0,0
				c0,1.295-0.433,2.595-1.3,3.455c-0.427,0.434-0.861,0.434-1.722,0.86c0.861,0,1.722,0.435,1.722,0.869
				c0.433,0.431,0.867,1.294,0.867,2.588c0,1.3,0,2.161,0,2.589v0.432c0,0.434,0,0.869,0,1.3c0.433,0.437,0.433,0.437,0.433,0.863
				h-0.868h-1.294c0-0.426,0-0.863,0-1.295v-0.434v-0.434c-0.433-0.86-0.433-1.72-0.433-2.589c0-0.866,0-1.725-0.427-2.154
				c-0.434-0.435-0.867-0.866-1.734-0.866h-1.289v7.772h-0.867h-0.867V44.654L142.899,44.654z M144.632,52.429h1.722
				c0.867,0,1.301-0.428,1.728-0.86c0.433-0.434,0.433-1.3,0.433-2.595l0,0c0-0.862,0-1.294-0.433-1.731
				c-0.427-0.431-0.861-0.431-1.728-0.431h-1.722V52.429L144.632,52.429z M158.017,49.832v-0.426c0-1.294,0-1.726,0-2.163
				c-0.434-0.431-0.861-0.861-1.296-0.861c-0.866,0-1.3,0.429-1.727,0.429c-0.434,0.431-0.434,1.3-0.434,2.162
				c0,0.432,0,1.295,0.434,1.726c0.427,0,0.861,0.869,1.727,1.3c1.296,0.862,2.59,1.723,3.022,2.588
				c0.433,0.435,0.433,1.295,0.433,2.589c0,1.729,0,3.023-0.866,3.889c-0.861,0.863-1.728,1.294-3.023,1.294
				c-1.294,0-2.589-0.431-3.023-1.294c-0.433-0.866-0.866-2.16-0.866-3.889v-0.432v-0.434h1.733v0.434
				c0,1.3,0.427,2.161,0.427,2.589c0.434,0.866,0.861,0.866,1.728,0.866c0.868,0,1.295,0,1.729-0.434
				c0.433-0.432,0.433-1.294,0.433-2.154c0-0.866,0-1.3-0.433-1.728c-0.434-0.432-0.861-1.295-2.161-1.726
				c-1.296-0.869-2.156-1.729-2.591-2.589c-0.433-0.434-0.433-1.3-0.433-2.595c0-1.294,0-2.592,0.867-3.451
				c0.433-0.434,1.722-0.869,3.022-0.869c1.296,0,2.156,0,2.59,0.869c0.433,0.86,0.866,1.72,0.866,3.451v0.432v0.426H158.017
				L158.017,49.832z M162.333,44.654h0.868h0.861V61.93H163.2h-0.868V44.654L162.333,44.654z M166.656,44.654h1.294h2.162
				c1.721,0,3.023,0.434,3.45,1.295c0.867,0.862,1.294,2.162,1.294,3.883v6.914c0,1.727-0.427,3.02-0.861,3.889
				c-0.433,0.869-1.294,1.295-2.594,1.295h-3.45h-1.294V44.654L166.656,44.654z M168.811,60.201h1.727
				c0.861,0,1.729-0.434,1.729-0.866c0.433-0.428,0.433-1.289,0.433-2.589v-6.914c0-1.289,0-2.152-0.433-2.589
				c-0.435-0.431-0.868-0.431-1.729-0.431h-1.727V60.201L168.811,60.201z M180.04,44.654h0.86h1.3l3.456,17.275h-1.3h-0.861
				l-0.433-3.884h-3.883l-0.867,3.884h-0.861h-0.868L180.04,44.654L180.04,44.654z M179.612,56.312h3.022l-1.734-9.5l0,0
				L179.612,56.312L179.612,56.312z M187.812,44.654h0.867h2.156c1.727,0,3.021,0.434,3.456,1.295
				c0.867,0.862,1.294,2.162,1.294,3.883v6.914c0,1.727-0.427,3.02-0.861,3.889c-0.433,0.869-1.294,1.295-2.588,1.295h-3.456h-0.867
				V44.654L187.812,44.654z M189.54,60.201h1.727c0.868,0,1.729-0.434,1.729-0.866c0.433-0.428,0.433-1.289,0.433-2.589v-6.914
				c0-1.289,0-2.152-0.433-2.589c-0.434-0.431-0.861-0.431-1.729-0.431h-1.727V60.201L189.54,60.201z M205.086,44.654h1.294h1.3
				l3.023,17.275h-0.868h-1.294l-0.427-3.884h-3.89l-0.433,3.884h-0.861h-0.866L205.086,44.654L205.086,44.654z M204.658,56.312
				h3.021l-1.3-9.5l0,0L204.658,56.312L204.658,56.312z M220.637,57.612c0,1.723-0.434,2.589-0.867,3.455
				c-0.861,0.863-1.729,1.294-3.023,1.294c-1.295,0-2.162-0.431-3.021-1.294c-0.434-0.866-0.868-1.732-0.868-3.455V44.654h0.868
				h0.86v12.523c0,0.869,0.434,1.729,0.434,2.157c0.433,0.866,0.86,0.866,1.727,0.866c0.434,0,1.294,0,1.294-0.866
				c0.434-0.428,0.434-1.289,0.434-2.157V44.654h1.295h0.867V57.612L220.637,57.612z M225.815,46.812h-3.456v-1.289v-0.869h8.64
				v0.869v1.289h-3.456V61.93h-0.862h-0.867V46.812L225.815,46.812z M236.616,62.36c-1.301,0-2.595-0.431-3.022-1.294
				c-0.434-0.866-0.868-2.594-0.868-4.755v-6.48c0-1.72,0.433-3.02,0.868-3.883c0.861-0.861,1.721-1.295,3.022-1.295
				c1.723,0,2.59,0.434,3.021,1.295c0.863,0.862,0.863,2.162,0.863,4.32v6.909c0,1.729,0,3.023-0.863,3.889
				C239.205,61.93,237.91,62.36,236.616,62.36L236.616,62.36z M236.616,60.201c0.86,0,1.295,0,1.723-0.866
				c0.432-0.428,0.432-1.289,0.432-2.589v-7.34c0-0.862,0-1.726-0.432-2.163c-0.428-0.431-0.863-0.861-1.723-0.861
				c-0.434,0-1.301,0.429-1.301,0.861c-0.433,0.437-0.433,1.731-0.433,2.589v6.48c0,1.734,0,2.595,0.433,3.023
				C235.315,59.766,235.749,60.201,236.616,60.201L236.616,60.201z M244.816,61.93h-0.861h-0.861V44.654h1.288h1.735l3.451,15.112
				V44.654h0.863h0.863V61.93h-1.295h-1.728l-3.455-14.686V61.93L244.816,61.93z M257.77,62.36c-1.293,0-2.588-0.431-3.02-1.294
				c-0.433-0.866-0.869-2.594-0.869-4.755v-6.48c0-1.72,0.435-3.02,0.869-3.883c0.867-0.861,1.726-1.295,3.02-1.295
				c1.295,0,2.59,0.434,3.023,1.295c0.867,0.862,0.867,2.162,0.867,4.32v6.909c0,1.729,0,3.023-0.867,3.889
				C260.36,61.93,259.065,62.36,257.77,62.36L257.77,62.36z M257.77,60.201c0.869,0,1.295,0,1.73-0.866
				c0.433-0.428,0.433-1.289,0.433-2.589v-7.34c0-0.862,0-1.726-0.433-2.163c-0.435-0.431-0.861-0.861-1.73-0.861
				c-0.86,0-1.293,0.429-1.293,0.861c-0.432,0.437-0.86,1.731-0.86,2.589v6.48c0,1.734,0.428,2.595,0.428,3.023
				C256.477,59.766,256.91,60.201,257.77,60.201L257.77,60.201z M265.98,61.93h-0.863h-0.869V44.654h1.732h1.295l2.588,13.818l0,0
				l2.595-13.818h1.293h1.727V61.93h-0.86h-0.867V46.812l0,0l-3.023,15.118h-0.865h-0.863l-3.02-15.118V61.93L265.98,61.93z
				 M280.663,44.654h1.293h1.295l3.023,17.275h-0.863h-1.295l-0.43-3.884h-3.89l-0.437,3.884h-0.856h-0.863L280.663,44.654
				L280.663,44.654z M280.228,56.312h3.023l-1.295-9.5l0,0L280.228,56.312L280.228,56.312z M292.752,44.654h0.869h2.588
				c1.726,0,2.59,0.434,3.455,1.295c0.86,0.862,1.295,2.162,1.295,3.883v6.914c0,1.727-0.435,3.02-0.861,3.889
				c-0.868,0.869-1.733,1.295-3.021,1.295h-3.455h-0.869V44.654L292.752,44.654z M294.914,60.201h1.726
				c0.863,0,1.295-0.434,1.723-0.866c0.435-0.428,0.435-1.289,0.435-2.589v-6.914c0-1.289,0-2.152-0.435-2.589
				c-0.428-0.431-0.86-0.431-1.723-0.431h-1.726V60.201L294.914,60.201z M303.118,61.93V44.654h6.48v0.869v1.289h-4.323v5.189h3.89
				v1.288v0.869h-3.89v6.043h4.323v0.866v0.863H303.118L303.118,61.93z M325.144,61.93h-2.163l-3.458,0.431
				c-1.293,0-2.16-0.431-2.588-1.294c-0.431-0.866-0.86-2.594-0.86-4.755v-6.48c0-1.72,0.428-3.02,0.86-3.883
				c0.863-0.861,1.728-1.295,3.023-1.295c1.297,0,2.592,0.434,3.023,1.295c0.863,0.433,0.863,1.731,0.863,3.456v6.478
				c0,1.728-0.432,3.023-0.863,4.317l2.163-0.434V61.93L325.144,61.93z M319.958,46.383c-0.435,0-1.295,0.429-1.295,0.861
				c-0.433,0.869-0.865,1.731-0.865,3.026v6.043c0,1.734,0.432,2.595,0.432,3.023c0.433,0.866,0.869,0.866,1.728,0.866
				s1.297,0,1.728-0.866c0.432-0.428,0.432-1.289,0.432-3.023v-6.043c0-1.725,0-2.589-0.432-3.026
				C321.254,46.812,320.818,46.383,319.958,46.383L319.958,46.383z M334.21,57.612c0,1.723-0.435,2.589-0.869,3.455
				c-0.86,0.863-1.721,1.294-3.021,1.294c-1.293,0-2.156-0.431-2.588-1.294c-0.863-0.866-1.295-1.732-1.295-3.455V44.654h0.86h1.3
				v12.523c0,0.869,0,1.729,0.43,2.157c0.432,0.866,0.865,0.866,1.293,0.866c0.867,0,1.3,0,1.732-0.866
				c0-0.428,0.43-1.289,0.43-2.157V44.654h0.86h0.869V57.612L334.21,57.612z M336.798,61.93V44.654h6.478v0.869v1.289h-4.314v5.189
				h3.883v1.288v0.869h-3.883v6.043h4.314v0.866v0.863H336.798L336.798,61.93z M345.439,44.654h0.86h3.455
				c1.3,0,2.162,0.434,2.588,1.295c0.437,0.433,0.869,1.731,0.869,3.025l0,0c0,1.295-0.432,2.595-0.869,3.455
				c-0.426,0.434-1.288,0.434-1.719,0.86c0.862,0,1.293,0.435,1.719,0.869c0.437,0.431,0.437,1.294,0.437,2.588
				c0,1.3,0,2.161,0,2.589v0.432c0.432,0.434,0.432,0.869,0.432,1.3c0,0.437,0,0.437,0,0.863h-0.869h-0.858
				c-0.43-0.426-0.43-0.863-0.43-1.295v-0.434v-0.434c0-0.86,0-1.72,0-2.589c0-0.866-0.432-1.725-0.863-2.154
				c0-0.435-0.437-0.866-1.298-0.866h-1.728v7.772h-0.865h-0.86V44.654L345.439,44.654z M347.164,52.429h1.728
				c0.861,0,1.73-0.428,1.73-0.86c0.432-0.434,0.862-1.3,0.862-2.595l0,0c0-0.862-0.43-1.294-0.862-1.731
				c0-0.431-0.869-0.431-1.73-0.431h-1.728V52.429L347.164,52.429z M355.373,61.93V44.654h6.043v0.869v1.289h-4.318v5.189h4.318
				v1.288v0.869h-4.318v6.043h4.746v0.866v0.863H355.373L355.373,61.93z M366.602,46.812h-3.458v-1.289v-0.869h8.634v0.869v1.289
				h-3.456V61.93h-0.863h-0.856V46.812L366.602,46.812z M376.1,44.654h1.293h1.295l3.027,17.275h-0.863h-0.869l-0.858-3.884h-3.456
				L374.8,61.93h-0.86h-0.861L376.1,44.654L376.1,44.654z M376.1,56.312h3.025l-1.732-9.5l0,0L376.1,56.312L376.1,56.312z
				 M383.874,44.654h0.86h3.456c1.295,0,2.16,0.434,2.59,1.295c0.865,0.433,0.865,1.731,0.865,3.025l0,0
				c0,1.295-0.433,2.595-0.865,3.455c-0.43,0.434-0.863,0.434-1.723,0.86c0.86,0,1.293,0.435,1.723,0.869
				c0.432,0.431,0.432,1.294,0.432,2.588c0,1.3,0,2.161,0.433,2.589v0.432c0,0.434,0,0.869,0,1.3c0,0.437,0,0.437,0,0.863h-0.865
				h-0.863c0-0.426,0-0.863-0.432-1.295v-0.434v-0.434c0-0.86,0-1.72,0-2.589c0-0.866-0.428-1.725-0.428-2.154
				c-0.435-0.435-0.867-0.866-1.736-0.866h-1.288v7.772h-1.3h-0.86V44.654L383.874,44.654z M386.034,52.429h1.288
				c0.869,0,1.736-0.428,2.164-0.86c0-0.434,0.432-1.3,0.432-2.595l0,0c0-0.862-0.432-1.294-0.432-1.731
				c-0.428-0.431-1.295-0.431-2.164-0.431h-1.288V52.429L386.034,52.429z M397.691,62.36c-1.295,0-2.155-0.431-3.023-1.294
				c-0.432-0.866-0.869-2.594-0.869-4.755v-6.48c0-1.72,0.437-3.02,1.3-3.883c0.437-0.861,1.297-1.295,2.592-1.295
				c1.728,0,2.588,0.434,3.455,1.295c0.433,0.862,0.863,2.162,0.863,4.32v6.909c0,1.729-0.43,3.023-1.295,3.889
				C400.279,61.93,399.419,62.36,397.691,62.36L397.691,62.36z M397.691,60.201c0.865,0,1.295,0,1.728-0.866
				c0.431-0.428,0.431-1.289,0.431-2.589v-7.34c0-0.862,0-1.726-0.431-2.163c0-0.431-0.863-0.861-1.728-0.861
				c-0.435,0-0.865,0.429-1.295,0.861c-0.433,0.437-0.433,1.731-0.433,2.589v6.48c0,1.734,0,2.595,0.433,3.023
				C396.396,59.766,397.256,60.201,397.691,60.201z"/>
		</g>
		<g>
			<path style="fill-rule:evenodd;clip-rule:evenodd;fill:#ffffff;" d="M329.892,113.747l-5.616,5.617v10.795l26.778,6.481h-26.778
				v9.932l0.433-0.432l6.911,10.795l-7.345-7.338v6.908l12.522,7.769l-10.794-18.135l38.435-8.635l-40.163-9.934l9.934-15.117
				l37.568-38.001l-2.156-2.163l-38.87,39.303l-6.476,3.889v1.723L329.892,113.747z M324.276,119.365l-4.753,4.751l-0.86-3.022
				l5.613-3.889v-1.723l-6.046,3.883l-3.89-15.117v28.069l3.458-3.883l6.478,1.725V119.365L324.276,119.365z M324.276,136.64v9.932
				l-2.59,0.434l2.59,2.592v6.908l-5.613-3.454l-4.323,17.7v-6.477l3.89-16.841l-3.89-3.883v-6.911H324.276z M314.34,104.247v28.069
				l-4.314,4.323h4.314v6.911l-4.314-3.888v41.023l4.314-16.411v6.477l-6.044,22.458l-3.884-15.98v-39.296l0.863-0.86h-0.863v-6.915
				l3.884,3.889V93.027l-3.884,16.406V97.77l3.884-15.545L314.34,104.247z M304.411,97.77v11.663l-3.888,16.838l3.888,3.889v6.915
				h-12.522v-9.069l0.432-0.434l-0.432-0.866v-3.888l2.588,4.322l2.599-0.434l0.428-1.723l-5.615-5.617v-4.749l7.339,4.314
				L304.411,97.77L304.411,97.77z M304.411,137.934v39.296l-6.048-24.613l-6.474,4.318v-2.161l6.046-3.883l-0.86-3.457l0,0
				l-5.186,5.183v-8.634l5.615,1.289L304.411,137.934z M291.889,114.616v4.749l-5.615-6.049l5.615,9.501v3.888l-10.792-18.566
				L291.889,114.616L291.889,114.616z M291.889,128.005v9.069h-27.641l27.641,6.909v8.634l-5.615,5.612l5.615-3.455v2.161
				l-6.478,4.317L130.376,316.287l-2.156-1.726l155.465-155.466l7.771-12.955l-39.73-8.635L291.889,128.005z"/>
			<path style="fill-rule:evenodd;clip-rule:evenodd;fill:none;stroke:#ffffff;stroke-width:0.4399;" d="M329.892,113.747
				l-10.369,10.368l-0.86-3.022L329.892,113.747L329.892,113.747z M308.295,93.027v41.021l-7.773-7.778L308.295,93.027
				L308.295,93.027z M286.274,113.316l11.229,11.666l-0.428,1.723l-2.599,0.434L286.274,113.316L286.274,113.316z M264.248,137.074
				h41.026l-7.771,8.197L264.248,137.074L264.248,137.074z M286.274,158.228l10.801-10.795l0,0l0.86,3.457L286.274,158.228
				L286.274,158.228z M331.62,156.934l-9.934-9.929l3.023-0.866L331.62,156.934L331.62,156.934z M310.025,180.686v-41.023
				l8.204,7.771L310.025,180.686L310.025,180.686z M351.054,136.64h-41.028l7.773-8.206L351.054,136.64L351.054,136.64z
				 M292.32,127.57l-11.224-19.431l18.131,10.791l9.067-36.706l9.934,37.14l12.522-7.772l38.87-39.303l2.156,2.163l-37.568,38.001
				l-9.934,15.117l40.163,9.934l-38.435,8.635l10.794,18.135l-18.135-11.223l-10.368,40.158l-9.932-40.593l-12.952,8.635
				L130.376,316.287l-2.156-1.726l155.465-155.466l7.771-12.955l-39.73-8.635L292.32,127.57z"/>
		</g>
		<g>
			<path style="fill:#ffffff;" d="M325.144,257.122c2.588-0.865,4.748-0.865,6.476-0.432c2.59,0,4.314,0.867,6.046,1.732
				c1.726,0.863,3.02,2.156,3.89,3.886c0,0.425,0.425,0.86,0.425,0.86c2.163,1.728,3.89,4.323,3.89,7.346
				c0,2.588-1.295,5.176-3.89,6.911c0,1.719-0.425,3.883-1.295,6.043c-0.865,3.023-2.588,6.046-4.751,8.201
				c3.027,6.911,4.751,13.822,4.751,22.023c0,6.478-1.293,12.957-3.457,19c3.027,5.186,5.186,10.369,6.915,15.117l0,0
				c0.86,3.023,0.86,6.046,0.86,8.21c0,3.888-0.86,7.337-2.588,9.501c-1.73,2.588-3.892,4.316-6.913,5.176c-0.861,0-1.728,0-3.021,0
				c-0.43,0.435-0.861,0.435-1.295,0.435c-1.295,2.588-3.455,4.32-6.043,4.32v-15.977c3.883,0.433,6.908,3.883,6.908,8.201
				c0,0,0,0,0,0.433l0,0l0.43-0.433c0.86,0.433,1.728,0,2.597,0c1.72-0.43,3.446-1.723,4.743-3.884c1.3-1.728,2.16-4.316,2.16-7.771
				c0-2.163,0-4.751-0.86-7.346c-1.3-3.883-3.023-7.766-5.186-12.522c-2.593,6.046-6.476,11.659-10.79,15.977v-4.318
				c3.453-4.314,6.908-9.499,9.066-15.117c-2.59-4.314-5.613-9.499-9.066-14.243v-5.183c3.883,5.183,7.337,10.796,10.359,15.972
				c1.295-5.176,2.164-10.362,2.164-15.545c0-13.384-4.751-24.613-12.522-34.112v-4.323c3.453,3.888,6.908,8.639,9.497,13.389
				c1.293-1.721,2.588-3.89,3.025-6.043c0.431-1.295,0.858-2.59,1.295-4.318c-0.437,0.428-0.863,0.428-1.295,0.428
				c-4.325,0-8.208-3.884-8.208-8.199c0-4.758,3.883-8.206,8.208-8.206c-0.437-0.435-0.869-0.863-1.295-1.298
				c-1.293-0.865-3.03-1.3-4.751-1.3c-2.162-0.425-4.323-0.425-6.476,0.435V257.122z M297.503,259.71
				c3.455,0.869,6.908,2.164,9.934,3.458c6.902-3.458,12.52-5.611,17.707-6.046v3.023c-3.89,0.433-8.641,2.163-14.252,4.751
				c5.183,2.595,9.499,6.048,13.384,9.932c0.433,0,0.433,0.428,0.869,0.428v4.323c-0.869-0.867-1.732-1.73-3.027-2.59
				c-3.888-4.323-9.071-7.776-14.254-10.368c-0.426,0-0.426,0-0.863,0v0.433c-3.02,1.295-6.478,3.458-9.497,5.611v-3.453
				c2.16-1.723,4.314-3.023,6.478-4.318c-2.163-0.863-4.318-1.295-6.478-2.163V259.71L297.503,259.71z M325.144,375.45
				c-0.435,0-0.869,0.435-1.3,0.435c-4.321,0-8.204-3.89-8.204-8.211c0-0.43,0-0.43,0-0.43c-2.16-0.86-3.888-2.593-5.615-3.888
				c-3.883,1.728-8.208,3.457-12.522,4.318v-3.023c10.792-2.59,20.295-8.632,27.641-16.842v4.318
				c-3.89,3.892-7.781,6.911-12.098,9.501c0.869,0.869,2.161,1.728,3.456,2.592c1.295-3.023,3.888-4.746,7.341-4.746
				c0.432,0,0.865,0,1.3,0V375.45L325.144,375.45z M325.144,313.266v5.183c-4.753-6.476-10.369-13.391-15.98-19.869
				c-3.89-3.455-7.773-7.346-11.661-11.229v-3.883c4.748,4.318,9.497,8.634,13.817,13.817
				C316.075,302.036,320.818,307.649,325.144,313.266z M286.274,258.422c3.888,0,7.771,0.863,11.229,1.288v3.023
				c-3.458-0.425-7.341-1.288-11.229-1.288V258.422L286.274,258.422z M297.503,367.674c-3.458,0.865-7.341,1.3-11.229,1.3v-3.023
				c3.888,0,7.771-0.432,11.229-1.3V367.674L297.503,367.674z M297.503,269.214v3.453c-2.59,1.73-4.751,3.023-6.909,4.758
				c2.158,2.154,4.32,3.883,6.909,6.043v3.883c-3.027-3.02-6.481-5.616-9.503-7.771c-0.426,0.433-0.862,0.433-1.726,0.865v-6.048
				c0.865,0.432,1.3,0.86,1.726,1.293C291.022,273.534,294.477,271.374,297.503,269.214z M285.411,258.422c0.428,0,0.863,0,0.863,0
				v3.023c0,0-0.435,0-0.863,0c-3.02,0-5.615,0.428-8.202,0.863v-3.023C279.796,258.85,282.391,258.422,285.411,258.422
				L285.411,258.422z M286.274,368.974c0,0-0.435,0-0.863,0c-3.02,0-5.615,0-8.202-0.435v-3.02c2.588,0.432,5.183,0.432,8.202,0.432
				c0.428,0,0.863,0,0.863,0V368.974L286.274,368.974z M286.274,274.397v6.048c-3.023,2.591-6.046,5.181-9.066,7.769v-3.883
				c2.588-2.163,5.609-4.751,8.202-6.906c-2.593-1.735-5.615-3.892-8.202-5.618v-3.456
				C280.228,270.079,283.251,272.234,286.274,274.397z M277.209,368.539c-5.186-0.865-10.369-2.155-15.115-4.32
				c-2.593,2.593-6.048,4.755-9.499,6.048c-2.163,0.863-4.323,1.295-6.478,1.728v-3.021c1.721-0.435,3.451-0.867,5.178-1.73
				c3.023-0.86,6.046-2.593,8.206-4.316c-5.183-2.595-9.501-6.044-13.383-9.932l0,0v-4.757c0.426,0.865,1.293,1.734,2.154,2.593
				c7.346,7.774,17.709,12.957,28.938,14.687V368.539L277.209,368.539z M246.116,251.079c0,0,0.426,0,0.86,0
				c4.318,0,8.206,3.888,8.206,8.206c3.023,0.86,6.478,2.16,9.502,3.023c3.883-1.298,8.204-2.599,12.524-3.023v3.023
				c-3.027,0.425-5.615,0.86-8.209,1.725c2.595,1.295,5.183,2.59,8.209,4.318v3.456c-3.892-2.161-7.774-4.316-11.666-5.616l0,0
				c-0.426-0.435-0.426-0.435-0.858-0.435c-7.344,3.028-13.391,7.778-18.568,13.389v-4.316c4.314-4.314,9.066-7.773,14.677-10.796
				c-2.154-0.431-4.316-1.3-6.043-1.725c-1.295,3.02-4.32,5.183-7.774,5.183c-0.433,0-0.86,0-0.86,0V251.079L246.116,251.079z
				 M277.209,284.331v3.883c-6.481,5.616-12.961,11.661-18.57,18.14c-4.757,4.75-9.071,9.932-12.522,15.117v-5.185
				c3.021-3.883,6.478-8.206,10.36-12.096C262.953,297.285,269.862,290.374,277.209,284.331z M246.116,371.995
				c-2.162,0-4.323,0-6.052-0.433c-1.295,0-2.154,0-3.021,0c-3.023-0.867-5.185-2.588-6.907-5.178
				c-0.434-0.865-0.867-1.733-1.299-2.595c-3.884-0.861-6.906-4.316-6.906-8.206c0-3.888,3.021-7.345,6.906-8.199
				c0.865-3.89,3.021-8.211,5.183-12.529c-3.022-6.478-4.318-13.817-4.318-21.163c0-8.634,1.729-15.977,5.179-23.318
				c-2.589-3.023-4.318-6.043-5.612-9.501c-1.294-4.316-1.294-8.639-0.861-13.382v-0.435c0.429-0.433,0.429-0.865,0.429-1.3
				c2.161-4.311,5.617-6.906,9.932-7.766c0.435-3.456,3.456-6.479,7.346-6.911v16.412c-3.455-0.435-6.48-3.023-7.346-6.481
				c-3.021,0.863-5.611,2.592-6.911,6.046c-0.427,0-0.427,0.435-0.427,0.869c-0.433,4.309-0.433,8.197,0.861,12.089
				c0.866,2.59,2.162,5.178,4.322,7.337c2.59-4.314,5.611-8.638,9.501-12.522v4.316c-8.206,9.501-13.391,21.163-13.391,34.547
				c0,6.046,0.868,12.094,3.023,17.712c3.021-4.755,6.478-9.932,10.368-15.117v5.185c-3.455,4.314-6.48,9.066-9.073,13.384
				c2.593,5.183,5.183,9.501,9.073,13.383v4.757c-4.323-4.323-7.778-9.069-10.802-14.685c-1.294,3.023-2.589,6.479-3.456,9.499
				c3.456,0.43,6.479,3.886,6.479,7.774c0,3.89-2.59,7.345-6.479,8.206c0.434,0.43,0.434,0.862,0.867,0.862
				c1.295,2.162,3.023,3.456,4.75,3.888c0.863,0,1.73,0.435,2.59,0l0.435,0.435c1.293,0,3.455,0,5.616,0V371.995z"/>
			<path style="fill:none;stroke:#ffffff;stroke-width:0.4399;" d="M285.411,258.422c7.773,0,15.112,1.723,22.027,4.746
				c10.792-5.178,18.566-7.341,24.183-6.478c2.59,0,4.314,0.867,6.046,1.732c1.726,0.863,3.02,2.156,3.89,3.886
				c0,0.425,0.425,0.86,0.425,0.86c2.163,1.728,3.89,4.323,3.89,7.346c0,2.588-1.295,5.176-3.89,6.911
				c0,1.719-0.425,3.883-1.295,6.043c-0.865,3.023-2.588,6.046-4.751,8.201c3.027,6.911,4.751,13.822,4.751,22.023
				c0,6.478-1.293,12.957-3.457,19c3.027,5.186,5.186,10.369,6.915,15.117l0,0c0.86,3.023,0.86,6.046,0.86,8.21
				c0,3.888-0.86,7.337-2.588,9.501c-1.73,2.588-3.892,4.316-6.913,5.176c-0.861,0-1.728,0-3.021,0
				c-0.43,0.435-0.861,0.435-1.295,0.435c-1.295,2.588-3.89,4.755-7.343,4.755c-4.321,0-8.204-3.89-8.204-8.211
				c0-0.43,0-0.43,0-0.43c-2.16-0.86-3.888-2.593-5.615-3.888c-7.339,3.457-15.98,5.618-24.614,5.618
				c-8.202,0-15.977-1.73-23.318-4.755c-2.593,2.593-6.048,4.755-9.499,6.048c-4.756,1.728-9.073,2.163-12.529,1.295
				c-1.295,0-2.154,0-3.021,0c-3.023-0.867-5.185-2.588-6.907-5.178c-0.434-0.865-0.867-1.733-1.299-2.595
				c-3.884-0.861-6.906-4.316-6.906-8.206c0-3.888,3.021-7.345,6.906-8.199c0.865-3.89,3.021-8.211,5.183-12.529
				c-3.022-6.478-4.318-13.817-4.318-21.163c0-8.634,1.729-15.977,5.179-23.318c-2.589-3.023-4.318-6.043-5.612-9.501
				c-1.294-4.316-1.294-8.639-0.861-13.382v-0.435c0.429-0.433,0.429-0.865,0.429-1.3c2.161-4.311,5.617-6.906,9.932-7.766
				c0.867-3.888,3.892-6.911,8.206-6.911c4.318,0,8.206,3.888,8.206,8.206c3.023,0.86,6.478,2.16,9.502,3.023
				C271.162,259.71,278.072,258.422,285.411,258.422L285.411,258.422z M254.75,262.309c-1.295,3.02-4.32,5.183-7.774,5.183
				c-3.883,0-7.339-2.595-8.206-6.481c-3.021,0.863-5.611,2.592-6.911,6.046c-0.427,0-0.427,0.435-0.427,0.869
				c-0.433,4.309-0.433,8.197,0.861,12.089c0.866,2.59,2.162,5.178,4.322,7.337c5.177-9.925,13.815-18.137,24.177-23.318
				C258.639,263.602,256.477,262.733,254.75,262.309L254.75,262.309z M338.961,278.285c-0.437,0.428-0.863,0.428-1.295,0.428
				c-4.325,0-8.208-3.884-8.208-8.199c0-4.758,3.883-8.206,8.208-8.206c-0.437-0.435-0.869-0.863-1.295-1.298
				c-1.293-0.865-3.03-1.3-4.751-1.3c-4.751-0.86-11.663,0.869-20.728,5.186c5.183,2.595,9.499,6.048,13.384,9.932
				c4.321,3.884,7.776,8.639,10.366,13.817c1.293-1.721,2.588-3.89,3.025-6.043C338.098,281.308,338.524,280.014,338.961,278.285
				L338.961,278.285z M323.844,359.473c4.753,0,8.208,3.455,8.208,8.201c0,0,0,0,0,0.433l0,0l0.43-0.433c0.86,0.433,1.728,0,2.597,0
				c1.72-0.43,3.446-1.723,4.743-3.884c1.3-1.728,2.16-4.316,2.16-7.771c0-2.163,0-4.751-0.86-7.346
				c-1.3-3.883-3.023-7.766-5.186-12.522c-4.748,10.799-12.954,19.868-22.888,25.478c0.869,0.869,2.161,1.728,3.456,2.592
				C317.798,361.196,320.391,359.473,323.844,359.473L323.844,359.473z M231.859,347.809c3.456,0.43,6.479,3.886,6.479,7.774
				c0,3.89-2.59,7.345-6.479,8.206c0.434,0.43,0.434,0.862,0.867,0.862c1.295,2.162,3.023,3.456,4.75,3.888
				c0.863,0,1.73,0.435,2.59,0l0.435,0.435c2.593,0.433,6.909,0,10.794-1.73c3.023-0.86,6.046-2.593,8.206-4.316
				c-5.183-2.595-9.501-6.044-13.383-9.932c-4.323-4.323-7.778-9.069-10.802-14.685C234.02,341.333,232.726,344.789,231.859,347.809
				L231.859,347.809z M268.999,264.033c6.046,3.023,12.524,6.911,19.002,11.657c5.62-4.316,11.227-7.766,15.98-10.794
				c-5.618-2.163-12.092-3.451-18.57-3.451C279.36,261.445,273.75,262.309,268.999,264.033L268.999,264.033z M307.864,266.623
				c-0.426,0-0.426,0-0.863,0v0.433c-5.183,2.59-10.792,6.046-16.407,10.369c7.341,6.043,14.247,12.52,20.726,19.86
				c9.497,9.929,17.707,21.163,24.183,31.952c1.295-5.176,2.164-10.362,2.164-15.545c0-14.678-5.615-27.201-15.549-36.701
				C318.23,272.667,313.047,269.214,307.864,266.623L307.864,266.623z M334.21,332.692c-6.046-10.789-15.112-22.883-25.046-34.112
				c-6.478-6.478-13.824-13.389-21.163-19c-9.929,7.771-20.295,16.846-29.362,26.774c-8.64,9.501-16.412,19.431-21.595,28.501
				c3.021,6.051,6.478,11.229,11.227,15.977c9.499,9.501,22.456,15.119,37.14,15.119
				C307.438,365.951,326.437,352.127,334.21,332.692L334.21,332.692z M235.749,331.404c5.183-9.073,12.522-18.138,20.728-27.213
				c8.639-9.499,19-19,28.934-26.765c-6.478-4.758-13.389-8.641-19.868-11.234l0,0c-0.426-0.435-0.426-0.435-0.858-0.435
				c-18.568,7.778-31.959,26.781-31.959,47.936C232.726,319.738,233.593,325.786,235.749,331.404z"/>
		</g>
		<g>
			<path style="fill-rule:evenodd;clip-rule:evenodd;fill:#ffffff;" d="M224.093,206.598v-1.729h9.066
				c0.861,0,1.296-0.425,1.296-1.294l0,0c0-0.434-0.434-0.866-1.296-0.866h-9.066v-1.294h3.884
				c-0.433-0.863-0.861-1.295-1.295-2.163c-1.3-1.289-2.162-2.589-2.589-3.883v-30.664c0.427,0,0.427,0.435,0.427,0.435v25.912
				c0,4.751,2.162,8.634,5.617,9.068l3.884,0.866c1.728,3.457,1.728,5.178,0.434,5.612H224.093L224.093,206.598z M224.093,145.271
				v-1.72l10.789,1.72l2.162,9.934l2.161-6.045l3.021,0.869l0.867-0.869l-1.3-6.044l-17.701-5.183v-9.068
				c0.427-1.727,0.427-3.02,0-4.314v-14.257c9.928,5.188,13.383,15.117,5.178,27.211l3.456,1.289
				c12.957-10.788,7.339-29.36-8.633-34.546v-1.295c18.569,5.187,21.155,28.075,10.362,36.275l8.638,3.023l0.861,9.501h-1.293
				h-3.025l-2.593,6.911l-1.729-0.434l-2.589-11.657L224.093,145.271z M224.093,102.952v1.295c-3.89-1.723-9.073-2.155-14.257-1.295
				v-1.728h1.3c0.861-3.883,0-6.477-1.3-7.337V80.929c1.3,0,2.162-0.425,3.456,0c6.479,0.863,11.228,7.772,7.773,21.595
				C222.358,102.524,223.226,102.952,224.093,102.952L224.093,102.952z M224.093,110.293v14.257
				c-0.867-6.48-6.051-11.663-14.257-13.392v-5.608C215.452,106.407,220.203,107.705,224.093,110.293L224.093,110.293z
				 M224.093,128.865c-0.434,2.162-1.301,4.317-2.596,6.477l-4.75-1.294c1.294-9.497-1.295-15.118-6.912-18.138v18.138l14.257,3.885
				V128.865L224.093,128.865z M224.093,143.551v1.72l-14.257-1.72v-1.728L224.093,143.551L224.093,143.551z M224.093,164.705v30.664
				c0-0.86-0.434-2.16-0.434-3.023v-25.478c0-1.728-1.3-3.023-3.456-4.317l-9.5-1.3l-0.868,1.3v-3.457l10.368,1.728
				C221.932,161.683,223.226,162.983,224.093,164.705L224.093,164.705z M224.093,201.415h-4.757c0.434-3.452,0-6.906-0.427-9.929
				c-0.868-1.735-7.345-7.778-3.889-17.281c0-0.86-0.434-1.72-1.294-1.72l-3.891,0.861v1.728l2.596-0.869
				c-1.728,8.64,1.295,13.392,4.75,18.569c0,2.165,0.86,2.594,0.433,8.211c-1.734,2.154-1.3,4.746-0.867,5.178l7.345,0.434v-1.729
				h-3.89c-0.867,0-1.294-0.425-1.294-1.294l0,0c0-0.434,0.427-0.866,1.294-0.866h3.89V201.415L224.093,201.415z M209.835,214.369
				c0.434,0,0.868,0,1.729,0c7.345-5.183,2.594-14.249,1.294-17.272c0-2.157-0.427-3.456-0.861-4.322
				c0-0.861-0.861-0.861-2.162-0.429v1.728c0.434,0,0.868,0.435,0.868,1.295c0.433,0.86,0.433,1.294,0.433,2.163
				c0.429,0.861,1.296,1.295,1.296,2.154c-0.867-0.434-1.728-0.86-2.596-1.294v2.16c2.162,1.294,4.323,2.589,4.323,5.18
				c-0.867,2.594-1.727,1.3-2.594-0.429c-0.861-0.86-1.295-1.728-1.729-2.163V214.369z M209.835,80.929v12.957
				c-0.86-0.86-2.156-0.86-3.456-0.434V82.224C207.68,81.364,208.541,81.364,209.835,80.929L209.835,80.929z M209.835,101.224v1.728
				c-0.433,0-0.433,0-0.86,0l-0.434,2.598c0.434,0,0.861,0,1.294,0v5.608c-0.86-0.431-2.156-0.431-3.456-0.431v0.431v-6.911
				c0-0.434,0-1.295,0-1.723v-4.32c1.3,0.865,1.734,2.16,1.734,3.02H209.835L209.835,101.224z M209.835,115.911v18.138h-0.433
				c-0.861,1.294-2.155,3.026-3.023,4.32v-3.457c0-0.425,0.434-0.862,0.868-1.294c-0.433-0.434-0.868-0.434-0.868-0.434v-2.155
				l1.3,0.432c0-3.026-0.432-5.615-1.3-7.344v-9.934C207.68,114.616,208.541,115.482,209.835,115.911L209.835,115.911z
				 M209.835,141.823v1.728h-2.156l-1.3,10.36v-7.772l0,0c0.434-2.589,1.3-3.889,2.161-4.317H209.835L209.835,141.823z
				 M209.835,159.094v3.457l-3.021,3.454l-0.434,0.429v-7.772L209.835,159.094L209.835,159.094z M209.835,173.346v1.728l-3.456,0.86
				v-1.728L209.835,173.346L209.835,173.346z M209.835,192.346v1.728l0,0c-1.294-0.433-1.721-0.433-2.588,0
				c-0.433,1.729,0.867,3.457,2.588,4.318v2.16c-1.294-0.431-2.588-1.3-3.456-2.16v-5.617
				C207.68,192.346,208.975,192.346,209.835,192.346L209.835,192.346z M209.835,203.141c-0.86-1.295-2.156-2.154-3.456-2.589v16.84
				l0.434-3.023c0.866,0,1.727,0,3.021,0V203.141z M206.38,82.224v11.228c-0.427,0.434-1.294,0.863-1.721,1.295v-12.09
				C205.086,82.658,205.952,82.224,206.38,82.224L206.38,82.224z M206.38,98.205v4.32c-0.427-0.866-0.86-1.732-1.721-2.594v-2.589
				C205.52,97.77,205.952,98.205,206.38,98.205L206.38,98.205z M206.38,104.247v6.911l-1.294,2.589c0.434,0,0.867,0.434,1.294,0.434
				v9.934c-0.427-0.865-0.86-1.728-1.721-2.592v-15.542C205.52,105.982,205.952,105.113,206.38,104.247L206.38,104.247z
				 M206.38,131.028v2.155c-0.427-0.434-1.294-0.866-1.721-0.866v-2.157L206.38,131.028L206.38,131.028z M206.38,134.911v3.457
				c-0.86,0.425-1.294,1.295-1.721,1.726v-3.454C205.52,136.205,205.952,135.774,206.38,134.911L206.38,134.911z M206.38,146.14
				v7.772l-0.427,3.023c-0.867,0.86-0.432,1.728,0,1.728h0.427v7.772h-1.721v-14.683c0.427-0.861,0.861-1.723,0.861-2.591h-0.861
				v-3.02H206.38L206.38,146.14z M206.38,174.206v1.728l-1.721,0.434v-1.728L206.38,174.206L206.38,174.206z M206.38,192.775v5.617
				c-0.86-0.861-1.721-2.163-1.294-3.883c0,0,0,0-0.427,0v-1.734C205.52,192.775,205.952,192.775,206.38,192.775L206.38,192.775z
				 M206.38,200.552v16.84v0.434h-1.721v-17.706C205.52,200.121,205.952,200.552,206.38,200.552z M201.635,108.571
				c0.861,1.294,0.861,2.588,0,3.456v9.066l0.861-1.3c0.861,0.432,1.727,1.3,2.162,1.731v-15.542
				c-0.868,0.425-1.729,0.425-3.023-0.432V108.571L201.635,108.571z M204.658,82.658v12.09c-0.434,0.434-0.868,1.299-1.3,2.163
				c0.433,0,0.866,0.432,1.3,0.432v2.589c-0.434-0.426-1.3-1.295-2.595-1.726l-0.428,0.865V84.812
				c0.861-0.425,1.294-1.289,2.156-1.72C204.224,83.093,204.658,83.093,204.658,82.658L204.658,82.658z M204.658,130.159v2.157
				c-0.868-0.429-1.729-0.857-3.023-0.857v-2.166c0.428,0,0.428,0,0.428,0c0-0.86,0-2.155-0.428-3.023v-3.454
				c0.861,1.734,1.723,3.888,2.156,7.343H204.658L204.658,130.159z M204.658,136.64v3.454c-0.434,0.434-0.434,0.434-0.434,0.869
				c-0.433,0-1.727,0.426-1.727,0.426c-0.433,0-0.433,0.434-0.861,1.294v-3.455c0.428-0.434,0.861-0.434,0.861-0.86
				C203.358,137.934,204.224,137.505,204.658,136.64L204.658,136.64z M204.658,146.14v3.02h-3.023v-3.02H204.658L204.658,146.14z
				 M204.658,151.751v14.683h-1.729h-1.294v-6.906h1.294c0.429-0.434,0.861-0.866,0.861-1.3h-2.156v-4.743h2.156
				C204.224,153.052,204.658,152.186,204.658,151.751L204.658,151.751z M204.658,174.64v1.728l-3.023,0.429v-1.289L204.658,174.64
				L204.658,174.64z M204.658,192.775v1.734c-0.868,0-2.162,0-3.023-0.435v-1.728c0.428,0,0.861,0,0.861,0
				C203.358,192.775,204.224,192.775,204.658,192.775L204.658,192.775z M204.658,200.121v17.706h-3.023v-18.14
				C202.929,199.686,203.791,199.686,204.658,200.121L204.658,200.121z M201.635,103.388v-2.595
				C205.086,102.952,205.52,105.982,201.635,103.388z M199.041,106.844c1.294,0.426,2.161,0.861,2.594,1.727v-3.02
				c-0.868-0.437-1.3-0.869-2.161-1.737l0.429-1.72c0.865,0.86,1.299,1.295,1.733,1.295v-2.595c0-0.428-0.433-0.428-0.868-0.428
				l0.868-1.295V84.812c-0.868,0.434-1.733,1.3-2.594,2.595V106.844L199.041,106.844z M201.635,112.027
				c-0.433,0.861-1.3,1.289-2.594,1.289v1.732c2.594,1.294,2.161,4.746,0,6.046v0.862c0,0,0.433,0,0.861,0
				c0.865,1.726,1.299,3.026,1.733,4.314v-3.454c0-0.429-0.433-0.861-0.433-0.861l0.433-0.862V112.027L201.635,112.027z
				 M199.041,111.158c2.161,0.434,1.726-0.865,0-2.154V111.158L199.041,111.158z M201.635,129.293v2.166h-0.433
				c-1.728,1.289-2.161,1.723-2.161,2.589v-3.889C199.474,129.728,200.768,129.293,201.635,129.293L201.635,129.293z
				 M201.635,139.228v3.455c0,0,0,0,0,0.434c0,0.434-0.433,2.155-0.868,3.023h0.868v3.02h-1.733c0,0.437-0.429,1.303-0.861,2.591
				v-6.48c0-0.861,0.433-1.72,0.433-3.02C199.903,140.962,200.335,139.663,201.635,139.228L201.635,139.228z M201.635,153.485v4.743
				h-2.594v-4.743H201.635L201.635,153.485z M201.635,159.528v6.906h-0.433l-2.161,4.317l0,0v-11.223H201.635L201.635,159.528z
				 M201.635,175.509v1.289l-2.594,0.866v-1.729L201.635,175.509L201.635,175.509z M201.635,192.346v1.728
				c-0.868-0.433-1.733-0.865-2.594-0.865v-1.723C199.903,191.487,200.768,191.915,201.635,192.346L201.635,192.346z
				 M201.635,199.686v18.14h-2.594v-18.14C199.903,199.686,200.768,199.686,201.635,199.686L201.635,199.686z M199.041,118.93
				v-1.294C199.474,118.07,199.474,118.505,199.041,118.93z M196.88,108.139l0.867-1.732c0.433,0,0.868,0,1.295,0.437V87.407
				c-1.295,0.862-2.162,2.162-3.023,3.456v20.295v-1.294c1.294,0.863,2.162,0.863,3.023,1.294v-2.154
				C198.18,108.571,197.746,108.571,196.88,108.139L196.88,108.139z M199.041,113.316c-0.861,0-2.162-0.428-3.023-0.862v2.163
				c1.294,0,2.162,0,3.023,0.432V113.316L199.041,113.316z M199.041,117.636v1.294c-0.427,0.434-1.729,0.434-3.023,0v-2.589
				C197.312,116.77,198.614,117.205,199.041,117.636L199.041,117.636z M199.041,121.093v0.862c-1.295,0-2.162,0-3.023-0.432v-0.862
				C197.312,121.093,198.18,121.093,199.041,121.093L199.041,121.093z M199.041,130.159v3.889c-0.427,0.437-0.427,1.294-1.729,3.026
				l-1.294,2.589v-3.457c0.434-1.295,0.861-2.589,1.294-3.889c-0.433-0.429-0.86-0.857-1.294-1.289v-2.594
				c0.434,0.86,1.294,1.725,2.162,2.594C198.614,130.594,198.614,130.594,199.041,130.159L199.041,130.159z M199.041,145.271v6.48
				c-0.427,0.434-0.427,0.865-0.861,1.734h0.861v4.743h-1.295c-0.434,0-0.867,0.866-1.728,1.3h3.023v11.223l-0.427,0.434
				l-2.596-0.434v-14.678C196.88,153.485,197.746,149.597,199.041,145.271L199.041,145.271z M199.041,175.934v1.729l-3.023,0.866
				v-1.732L199.041,175.934L199.041,175.934z M199.041,191.487v1.723c-0.861-0.434-2.162-0.863-3.023-1.295v-1.728
				C196.88,190.621,197.746,191.052,199.041,191.487L199.041,191.487z M199.041,199.686v18.14h-0.861l-2.162,2.589v-20.295
				C196.88,199.686,198.18,199.686,199.041,199.686z M196.018,112.453h-0.433l0.433-1.295V90.864
				c-1.295,1.726-2.162,3.452-3.021,5.183c-3.023,1.295-5.185,2.589-7.773,3.884c0-0.426-0.433-1.295-0.867-2.161v19.001
				c0.867,0,1.728-0.429,2.162-0.429c2.161,0.429,4.75,1.729,6.479,2.589c-1.729,4.752,0,9.504,3.021,12.098v-2.594
				c-1.727-2.589-2.589-5.183-2.162-7.772c0.867,0.431,1.301,0.862,2.162,0.862v-0.862c-0.433,0-1.295,0-1.727-0.437l0.433-1.72
				c0.434,0,0.861,0,1.295,0.425v-2.589c-0.433,0-0.861,0-0.861,0l0.427-1.726c0,0,0,0,0.433,0V112.453L196.018,112.453z
				 M196.018,136.205v3.457l-3.456,5.608c-0.427,1.734-2.589,3.889-1.727-0.425c0-3.884-2.156-6.052-5.179-6.912
				c-0.433,0-0.866,0-1.3,0v-2.16c1.728,0.866,3.023,0.866,5.617,0.432v2.163c1.294,0.425,1.728,1.726,2.589,3.02
				C193.857,139.663,195.158,138.368,196.018,136.205L196.018,136.205z M196.018,156.074v14.678h-4.75l-2.155,4.758l-3.889-1.303
				l-0.867,2.163v-16.84h4.756c-0.433-0.434-1.733-0.866-2.16-1.734h-2.596v-6.472c1.3,2.163,3.023,4.317,5.617,5.612
				c1.728,1.294,3.023,1.728,4.75,0.86C195.158,157.369,195.585,156.934,196.018,156.074L196.018,156.074z M196.018,176.798v1.732
				h-0.861l-3.456,11.223c0.861-0.429,2.589,0,4.316,0.434v1.728c-1.295-0.428-3.021-0.862-4.75-0.862
				c-0.867,0-0.867-0.866-0.433-2.589l3.456-11.234L196.018,176.798L196.018,176.798z M196.018,200.121v20.295l-2.162,1.729
				l-4.316-4.318l-5.184,0.861v-17.272l9.5-1.295C194.723,200.121,195.158,200.121,196.018,200.121L196.018,200.121z
				 M184.357,123.682v-2.158l0,0c0.434,0,0.867,0.432,0.867,0.863C185.223,123.251,184.791,123.682,184.357,123.682L184.357,123.682
				z M184.357,97.77v19.001c-1.295,0-2.589,0-3.456,0v5.186l-0.427,0.861v-20.724c0.427,0,0.861,0,1.295,0
				c0.867,0,0.432,0,0.867-0.434c-0.434-0.434-1.3-0.866-2.162-1.728v-1.295c1.295,0.869,2.589,2.157,3.884,3.023
				c0-1.728-1.722-4.317-3.884-6.477v-2.155C182.2,94.747,183.495,96.482,184.357,97.77L184.357,97.77z M184.357,121.524
				c-0.427,0-0.861,0.432-0.861,0.863c0,0.863,0.434,1.295,0.861,1.295V121.524L184.357,121.524z M184.357,135.774v2.16
				c-1.722-0.429-2.589-1.294-3.884-2.16v-2.157l0,0c0-0.434,0-0.434,0-0.869v-4.314c0.427,0,0.861,0,1.295,0
				c0,2.16,0.867,3.883,1.294,6.051L184.357,135.774L184.357,135.774L184.357,135.774z M184.357,151.322v6.472h-3.884v-3.448h3.022
				c-1.295-2.16-1.727-3.883-2.595-5.617h-0.427v-3.023c0.861,0,1.295,0.434,1.727,1.3
				C182.635,148.728,183.495,150.029,184.357,151.322L184.357,151.322z M184.357,159.528v16.84l-0.427,0.429l-3.456,2.594v-19.863
				H184.357L184.357,159.528z M184.357,201.415v17.272l-1.722,0.434v-7.346l-2.162-0.86v-9.069L184.357,201.415z M180.473,93.027
				v2.155c-3.89-4.318-10.361-8.201-15.117-6.912c-9.067,5.617,1.3,17.712,8.639,7.346c2.589,0.431,4.318,1.726,6.479,3.02v1.295
				c-1.728-1.295-3.456-2.161-6.044-3.02c-0.434,0.432-0.867,0.432-0.867,0.86c0.433,1.3,3.889,3.889,6.911,4.323v20.724
				l-3.022,4.322c0.428,0.866,1.728,1.295,3.022,1.295v4.314c0-1.289-0.432-2.589-1.294-2.589l-2.596-0.866
				c-0.427-0.428-0.86-1.289-1.294-2.155v-0.868l3.456-4.746v-4.754c-1.294-3.455-0.866-6.906,0-9.066
				c-3.889,1.3-6.912-0.434-9.5-3.023c-5.183,2.589-8.206,0-10.795-3.023c-4.75-3.023-7.345-3.889-9.5-6.477
				c-2.596-0.866-5.185-1.729-7.773-1.729c-0.867-0.425-1.3-0.862-0.867-2.163c6.911-1.72,13.39-0.861,19.867,0.869
				c1.294-5.178,4.317-6.478,7.773-6.478C172.268,86.112,177.017,89.57,180.473,93.027L180.473,93.027z M180.473,133.617v2.157
				h-0.432c-0.861,0.866-2.59,3.454-3.023,9.932l3.023,0.434c0.432-0.434,0.432-0.434,0.432-0.434v3.023h-3.022
				c-0.433,1.734-0.433,2.594-0.433,3.888c0,0.435,0.861,0.869,0.861,1.729h2.594v3.448h-0.861c0,0.434-0.433,1.3,0.861,1.734l0,0
				v19.863l-3.022,1.726l-0.868,11.229c-0.86,6.48,0,9.5,3.029,9.5h0.861v9.069l-1.728-0.863l-0.866-1.3l2.162-3.448h-3.023
				l-8.64-12.528l3.891-3.452l-1.729-5.615l5.185-3.023v-1.294c0.86-6.906,1.294-13.817,1.727-20.729
				c-1.295-2.157-2.595-4.317-2.595-7.34c0-5.183,0-11.229,1.727-15.117C177.879,134.911,178.745,134.048,180.473,133.617z"/>
			<path style="fill-rule:evenodd;clip-rule:evenodd;fill:none;stroke:#ffffff;stroke-width:0.4399;" d="M196.88,108.139
				l0.867-1.732c6.478,0.863,6.044,9.504-2.162,6.046l0.433-2.589C202.063,112.888,201.202,109.433,196.88,108.139L196.88,108.139z
				 M195.158,116.341l0.427-1.726c7.773-0.869,6.479,9.5-1.294,5.609l0.433-1.72C200.768,120.662,200.768,116.77,195.158,116.341
				L195.158,116.341z M200.768,100.365l1.296-2.16c7.772,3.02,4.316,12.523-2.59,5.608l0.429-1.72
				C205.952,107.27,205.52,102.524,200.768,100.365L200.768,100.365z M203.358,96.91c3.021-5.62,9.5-5.183,7.777,4.314h-3.021
				C208.114,99.504,206.814,98.205,203.358,96.91L203.358,96.91z M192.997,96.047c2.588-6.045,6.906-10.366,10.794-12.954
				c3.456-1.729,6.479-2.589,9.501-2.163c6.479,0.863,11.228,7.772,7.773,21.595c21.597,3.026,25.052,28.069,13.391,36.703
				l8.638,3.023l0.861,9.501h-1.293h-3.025l-2.593,6.911l-1.729-0.434l-2.589-11.657l-25.046-3.02l-1.727,13.384
				c-0.867,0.86-0.432,1.728,0,1.728l14.25,2.16c2.156,0.861,3.456,2.592,4.317,4.318v25.912c0,4.751,2.162,8.634,5.617,9.068
				l3.884,0.866c1.728,3.457,1.728,5.178,0.434,5.612l-17.708-0.434c-0.433-0.432-0.868-3.023,0.867-5.178
				c0.427-5.617-0.433-6.046-0.433-8.211c-3.456-5.178-6.479-9.929-4.75-18.569l-17.273,4.323l-3.456,11.223
				c2.155-0.861,6.912,1.735,10.795,2.594c5.617,0.863,9.5-1.294,9.5,0.429c0.434,0.866,0.861,2.165,0.861,4.322
				c1.3,3.023,6.051,12.089-1.294,17.272c-2.589,0-3.885,0-4.75,0l-0.434,3.457h-8.2l-4.323,4.318l-4.316-4.318l-6.906,1.295v-7.346
				l-3.89-1.723l-0.866-1.3l2.162-3.448h-3.023l-8.64-12.528l3.891-3.452l-1.729-5.615l5.185-3.023v-1.294
				c0.86-6.906,1.294-13.817,1.727-20.729c-1.295-2.157-2.595-4.317-2.595-7.34c0-5.183,0-11.229,1.727-15.117
				c1.296-1.295,2.596-2.157,3.89-2.589c0-1.729-0.432-3.023-1.294-3.457l-2.596-0.866c-0.427-0.428-0.86-1.289-1.294-2.155v-0.868
				l3.456-4.746v-4.754c-1.294-3.455-0.866-6.906,0-9.066c-3.889,1.3-6.912-0.434-9.5-3.023c-5.183,2.589-8.206,0-10.795-3.023
				c-4.75-3.023-7.345-3.889-9.5-6.477c-2.596-0.866-5.185-1.729-7.773-1.729c-0.867-0.425-1.3-0.862-0.867-2.163
				c6.911-1.72,13.39-0.861,19.867,0.869c1.294-5.178,4.317-6.478,7.773-6.478c7.339,0.866,17.274,11.229,17.274,14.249
				C187.812,98.635,189.974,97.342,192.997,96.047L192.997,96.047z M232.726,138.793c16.412-13.812,2.589-40.158-23.75-35.841
				l-0.434,2.598c19.868,2.154,32.819,14.675,20.729,31.954L232.726,138.793L232.726,138.793z M221.497,135.342
				c6.912-11.226,0.435-22.889-15.117-24.614l-1.294,3.02c8.206,2.594,13.39,8.209,11.662,20.301L221.497,135.342L221.497,135.342z
				 M201.202,121.956l1.295-2.162c3.456,2.162,5.183,6.051,5.183,11.666l-3.889-1.3C203.358,126.27,202.497,124.116,201.202,121.956
				L201.202,121.956z M180.473,159.528c-1.294-0.434-0.861-1.3-0.861-1.734h7.34c0.427,0.869,1.726,1.3,2.16,1.734H180.473
				L180.473,159.528z M197.746,158.228h6.044c0,0.434-0.433,0.866-0.861,1.3h-6.911C196.88,159.094,197.312,158.228,197.746,158.228
				L197.746,158.228z M209.403,134.048l32.391,9.068l1.3,6.044l-0.867,0.869l-3.021-0.869l-2.161,6.045l-2.162-9.934l-26.341-3.449
				c-0.861,0.428-1.727,1.728-2.161,4.317h-5.612c0.434-0.869,0.868-2.589,0.868-3.023c0-0.866,0.428-1.728,0.861-1.728
				c0,0,1.294-0.426,1.727-0.426C204.224,140.093,207.68,136.64,209.403,134.048L209.403,134.048z M199.903,149.16h5.617
				c-0.434,1.303-0.434,2.591-1.729,4.325h-5.611C199.041,151.322,199.474,150.029,199.903,149.16L199.903,149.16z M177.451,148.728
				h3.449c0.868,1.734,1.3,3.457,2.595,5.617h-5.616c0-0.861-0.861-1.294-0.861-1.729
				C177.017,151.322,177.017,150.463,177.451,148.728L177.451,148.728z M180.04,135.774c2.16,0.866,2.594,2.16,5.616,2.16
				c3.022,0.86,5.179,3.028,5.179,6.912c-0.861,4.314,1.3,2.16,1.727,0.425l4.75-8.197c2.591-3.892,0.868-3.026,3.89-5.615
				c2.156,0,3.884,0.857,6.045,2.157c-0.868,2.157-3.023,3.888-4.75,4.751c-2.162,0.86-2.162,2.594-3.023,3.883
				c-1.727,6.909-3.021,13.823-4.75,15.544c-1.726,0.869-3.021,0.434-4.75-0.86c-4.317-2.589-6.479-6.044-7.773-9.929
				c-0.432-0.866-0.866-1.3-2.16-0.866l-3.023-0.434C177.451,139.228,179.179,136.64,180.04,135.774L180.04,135.774z
				 M197.312,132.316c-3.883-2.157-6.477-8.201-4.315-13.386c-1.729-0.86-4.318-2.16-6.479-2.589
				c-1.727,0.429-3.884,0.429-5.618,0.429v5.186l-3.449,5.183c0.428,1.295,3.022,1.295,4.317,1.295c0,2.16,0.867,3.883,1.294,6.051
				l1.295,1.289c1.728,0.866,3.023,0.866,5.617,0.432v2.163c1.294,0.425,1.728,1.726,2.589,3.02
				C194.723,138.368,196.018,136.64,197.312,132.316L197.312,132.316z M174.429,96.91c-0.434,0.432-0.867,0.432-0.867,0.86
				c0.433,1.3,4.75,4.755,8.206,4.323c0.867,0,0.432,0,0.867-0.434C180.473,100.365,178.312,97.77,174.429,96.91L174.429,96.91z
				 M184.357,101.659c-0.427-4.317-11.222-15.978-19.001-13.389c-9.067,5.617,1.3,17.712,8.639,7.346
				C177.879,96.047,181.334,99.504,184.357,101.659L184.357,101.659z M207.247,194.075c-0.433,2.589,1.728,4.318,5.184,5.612
				c0-0.86-0.867-1.294-1.296-2.154c0-0.869,0-1.303-0.433-2.163c0-0.86-0.433-1.295-0.868-1.295
				C208.541,193.641,208.114,193.641,207.247,194.075L207.247,194.075z M184.357,121.524c0.434,0,0.867,0.432,0.867,0.863
				c0,0.863-0.433,1.295-0.867,1.295c-0.427,0-0.861-0.431-0.861-1.295C183.495,121.956,183.929,121.524,184.357,121.524
				L184.357,121.524z M193.857,120.662c1.728,1.294,3.89,1.294,6.046,1.294c1.733,3.026,2.161,4.749,2.161,7.337
				c-1.296,0-3.022,0.434-3.884,1.734C194.723,128.005,193.429,124.116,193.857,120.662L193.857,120.662z M220.203,202.709h12.956
				c0.861,0,1.296,0.431,1.296,0.866l0,0c0,0.869-0.434,1.294-1.296,1.294h-12.956c-0.867,0-1.294-0.425-1.294-1.294l0,0
				C218.909,203.141,219.336,202.709,220.203,202.709L220.203,202.709z M177.451,181.117l6.479-4.32l1.294-2.592l3.889,1.303
				l2.155-4.758l7.346,0.434l0.427-0.434l2.161-4.317h1.727l3.884-0.429l3.889-4.754l9.5,1.3c2.156,1.294,3.456,2.589,3.456,4.317
				v25.478c0.434,3.023,0.861,4.751,3.023,6.906c0.433,0.869,0.862,1.3,1.295,2.163h-8.64c0.434-3.452,0-6.906-0.427-9.929
				c-0.868-1.735-7.345-7.778-3.889-17.281c0-0.86-0.434-1.72-1.294-1.72l-19.435,4.743l-3.456,11.234
				c-0.434,1.723-0.434,2.589,0.433,2.589c6.044,0.434,9.068,3.457,13.818,3.457c-0.861,6.043,9.073,5.611,9.073,11.223
				c-0.867,2.594-1.727,1.3-2.594-0.429c-3.023-4.317-5.612-6.911-17.708-5.183l-14.244,1.726c-3.029,0-3.889-3.02-3.029-9.5
				L177.451,181.117z"/>
		</g>
		<path style="fill-rule:evenodd;clip-rule:evenodd;fill:#ffffff;stroke:#ffffff;stroke-width:0.4399;" d="M153.7,152.616
			c10.795,0,19.435,8.635,19.435,19.435c0,10.363-8.64,19.001-19.435,19.001c-10.367,0-19.002-8.637-19.002-19.001
			C134.698,161.251,143.333,152.616,153.7,152.616z"/>
	</g>
</g>
</svg>
