<?xml version="1.0" encoding="iso-8859-1"?>
<!-- Generator: Adobe Illustrator 26.0.1, SVG Export Plug-In . SVG Version: 6.00 Build 0)  -->
<svg version="1.1" id="Layer_1" xmlns="http://www.w3.org/2000/svg" xmlns:xlink="http://www.w3.org/1999/xlink" x="0px" y="0px"
	 viewBox="0 0 500 500" style="enable-background:new 0 0 500 500;" xml:space="preserve">
<g>
	<polygon style="fill:#ffffff;" points="57.791,201.185 57.791,142.992 146.842,142.992 159.895,128.793 146.842,115.491 
		57.791,115.491 57.791,57.298 40.871,44.245 25,57.298 25,115.491 25,142.992 25,201.185 41.921,214.224 	"/>
	<polygon style="fill:#ffffff;" points="449.81,96.44 468.828,82.242 449.81,68.932 240.099,68.932 221.081,83.13 240.099,96.44 	
		"/>
	<polygon style="fill:#ffffff;" points="469.699,271.758 448.432,266.743 274.244,345.259 264.282,365.323 285.548,370.337 
		459.736,291.821 	"/>
	<polygon style="fill:#ffffff;" points="161.454,68.932 168.181,54.735 161.454,41.424 87.271,41.424 80.544,55.622 87.271,68.932 	
		"/>
	<polygon style="fill:#ffffff;" points="87.271,194.129 80.544,208.326 87.271,221.636 161.454,221.636 168.181,207.439 
		161.454,194.129 	"/>
	<polygon style="fill:#ffffff;" points="432.592,419.718 432.592,340.088 418.395,331.933 405.084,340.088 405.084,408.016 
		328.267,375.338 310.361,383.149 317.499,400.651 453.664,458.576 471.57,450.764 464.432,433.263 	"/>
	<path style="fill:#ffffff;" d="M348.481,189.72L348.481,189.72c0,16.562,17.882,27.102,28.484,31.895
		c4.435,2.005,9.243,3.019,14.11,3.019h35.598c48.96,0,48.326-58.983,48.326-58.983v-33.944l-12.042-12.343l-13.31,12.343v33.68
		c-0.142,1.224-0.322,2.402-0.536,3.534c-3.045,16.133-17.37,27.677-33.788,27.677h-16.223c-10.091,0-19.799-4.323-26.228-12.1
		c-10.3-12.458-11.795-27.575-11.795-27.575v-25.216l-12.596-12.343v0l-14.018,12.343v25.216c0,0-2.169,19.703-18.611,32.659
		c-5.912,4.659-13.316,7.016-20.843,7.016h-25.12c-9.582,0-18.892-3.843-25.251-11.011c-4.101-4.624-7.569-11.119-8.745-20.2v-33.68
		l-14.812-12.343l-13.401,12.343v33.944c0,0-0.705,58.983,53.781,58.983h41.119c4.263,0,8.476-0.792,12.453-2.327
		C326.487,217.887,348.481,207.132,348.481,189.72z"/>
	<path style="fill:#ffffff;" d="M124.627,266.743c0,0-52.371-6.666-86.227,24.368v20.102l20.807,1.763
		c0,0,26.44-27.101,63.323-19.554c2.407,0.492,4.839,0.879,7.278,1.173c11.258,1.355,45.251,8.506,47.896,45.536l16.575,11.285
		l16.575-12.696C210.854,338.721,209.796,270.236,124.627,266.743z"/>
	<path style="fill:#ffffff;" d="M177.703,384.585c-2.645,37.03-36.638,44.181-47.896,45.536c-2.439,0.294-4.871,0.68-7.278,1.173
		c-36.883,7.547-63.323-19.554-63.323-19.554L38.4,413.503v20.102c33.856,31.035,86.227,24.368,86.227,24.368
		c85.169-3.492,86.227-71.978,86.227-71.978l-16.575-12.696L177.703,384.585z"/>
</g>
</svg>
