<?xml version="1.0" encoding="UTF-8" standalone="no"?>
<!-- Uploaded to: SVG Repo, www.svgrepo.com, Generator: SVG Repo Mixer Tools -->

<svg
   width="800px"
   height="800px"
   viewBox="0 0 192 192"
   fill="none"
   version="1.1"
   id="svg2"
   sodipodi:docname="excel2.svg"
   inkscape:version="1.4 (86a8ad7, 2024-10-11)"
   xmlns:inkscape="http://www.inkscape.org/namespaces/inkscape"
   xmlns:sodipodi="http://sodipodi.sourceforge.net/DTD/sodipodi-0.dtd"
   xmlns="http://www.w3.org/2000/svg"
   xmlns:svg="http://www.w3.org/2000/svg">
  <defs
     id="defs2" />
  <sodipodi:namedview
     id="namedview2"
     pagecolor="#ffffff"
     bordercolor="#000000"
     borderopacity="0.25"
     inkscape:showpageshadow="2"
     inkscape:pageopacity="0.0"
     inkscape:pagecheckerboard="0"
     inkscape:deskcolor="#d1d1d1"
     showguides="true"
     inkscape:zoom="1.00875"
     inkscape:cx="399.50434"
     inkscape:cy="479.30607"
     inkscape:window-width="1600"
     inkscape:window-height="829"
     inkscape:window-x="1912"
     inkscape:window-y="168"
     inkscape:window-maximized="1"
     inkscape:current-layer="svg2" />
  <path
     d="M56 30c0-1.662 1.338-3 3-3h108c1.662 0 3 1.338 3 3v132c0 1.662-1.338 3-3 3H59c-1.662 0-3-1.338-3-3v-32m0-68V30"
     style="fill-opacity:0.402658;stroke:#ffffff;stroke-width:12;stroke-linecap:round;paint-order:stroke fill markers;stroke-opacity:1;fill:none"
     id="path1" />
  <rect
     width="68"
     height="68"
     x="-58.1"
     y="40.3"
     rx="3"
     style="fill:none;fill-opacity:0.402658;stroke:#ffffff;stroke-width:12;stroke-linecap:round;stroke-linejoin:miter;stroke-dasharray:none;stroke-opacity:1;paint-order:stroke fill markers"
     transform="translate(80.1 21.7)"
     id="rect1" />
  <path
     d="M138.79 164.725V27.175M56.175 58.792H170M170 96H90.328M169 133.21H56.175M44.5 82l23 28m0-28-23 28"
     style="stroke:#ffffff;stroke-width:12;stroke-linecap:round;stroke-linejoin:round;stroke-dasharray:none;stroke-opacity:1;fill:none;opacity:1"
     id="path2" />
</svg>
